<svg viewBox="0 0 120 40" fill="none" xmlns="http://www.w3.org/2000/svg">
<path d="M8.44484 39.1251C8.14016 39.1251 7.84284 39.1212 7.54055 39.1144C6.91433 39.1063 6.28957 39.0518 5.67141 38.9513C5.095 38.8521 4.53661 38.6674 4.01467 38.4034C3.49751 38.1417 3.02582 37.7984 2.61767 37.3868C2.20361 36.9801 1.85888 36.5084 1.59716 35.9903C1.33255 35.4689 1.14942 34.91 1.05416 34.3331C0.951281 33.7133 0.895621 33.0865 0.887656 32.4581C0.881316 32.2472 0.873016 31.545 0.873016 31.545V8.44448C0.873016 8.44448 0.881856 7.75307 0.887706 7.54994C0.895332 6.92262 0.950669 6.29679 1.05324 5.67787C1.14868 5.09939 1.33194 4.53889 1.5967 4.01577C1.85746 3.49808 2.20027 3.026 2.61184 2.61782C3.02294 2.20576 3.49614 1.86074 4.01418 1.59535C4.53492 1.33223 5.09225 1.14887 5.6675 1.05141C6.28769 0.949973 6.91462 0.895133 7.54301 0.887347L8.44533 0.875137H111.214L112.127 0.887837C112.75 0.895237 113.371 0.949587 113.985 1.05043C114.566 1.14911 115.13 1.33375 115.656 1.59828C116.694 2.13312 117.539 2.9793 118.071 4.01821C118.332 4.53772 118.512 5.09364 118.606 5.66713C118.71 6.29113 118.768 6.92188 118.78 7.55434C118.783 7.83754 118.783 8.14174 118.783 8.44448C118.791 8.81948 118.791 9.17641 118.791 9.53627V30.4649C118.791 30.8282 118.791 31.1827 118.783 31.5401C118.783 31.8653 118.783 32.1632 118.779 32.4698C118.768 33.091 118.71 33.7105 118.608 34.3233C118.515 34.9044 118.333 35.4676 118.068 35.9933C117.805 36.5058 117.462 36.9734 117.053 37.379C116.644 37.7928 116.172 38.1381 115.653 38.4015C115.128 38.6675 114.566 38.8529 113.985 38.9513C113.367 39.0523 112.742 39.1068 112.116 39.1144C111.823 39.1212 111.517 39.1251 111.219 39.1251L110.135 39.1271L8.44484 39.1251Z" fill="black"/>
<path d="M42.9822 11.0531C42.9822 11.7693 42.7701 12.3396 42.3453 12.7651C41.8629 13.271 41.234 13.5241 40.461 13.5241C39.7208 13.5241 39.0913 13.2676 38.5737 12.754C38.0552 12.2408 37.7965 11.6044 37.7965 10.845C37.7965 10.0854 38.0552 9.44929 38.5737 8.93572C39.0913 8.42248 39.7208 8.16569 40.461 8.16569C40.8283 8.16569 41.18 8.2375 41.5139 8.38076C41.8478 8.52437 42.1156 8.715 42.316 8.95375L41.8652 9.40484C41.5256 8.99914 41.0581 8.79646 40.461 8.79646C39.9211 8.79646 39.4543 8.98615 39.0603 9.36578C38.6662 9.74583 38.4693 10.2386 38.4693 10.845C38.4693 11.4515 38.6662 11.9443 39.0603 12.3243C39.4543 12.7039 39.9211 12.8936 40.461 12.8936C41.0338 12.8936 41.5113 12.7029 41.8935 12.321C42.1417 12.0721 42.2852 11.7263 42.3236 11.2821H40.461V10.666H42.9464C42.9704 10.8 42.9822 10.9286 42.9822 11.0531" fill="white"/>
<path d="M42.9822 11.0531H42.8967C42.896 11.753 42.6916 12.2965 42.2849 12.7046L42.284 12.7053L42.2836 12.706C41.8165 13.1945 41.216 13.4376 40.461 13.4386C39.7405 13.4376 39.1374 13.1918 38.6339 12.6936C38.1314 12.1944 37.8829 11.585 37.882 10.8451C37.8829 10.1048 38.1314 9.49572 38.6339 8.99684C39.1374 8.49831 39.7405 8.25221 40.461 8.25118C40.8173 8.25118 41.1566 8.32068 41.4802 8.45924C41.8041 8.59884 42.0599 8.78177 42.2505 9.00889L42.316 8.95376L42.2556 8.89332L41.8047 9.34476L41.8652 9.40485L41.931 9.35014C41.5757 8.92435 41.0769 8.70971 40.461 8.71099C39.9011 8.71031 39.4086 8.91033 39.0012 9.30441C38.5898 9.69976 38.3831 10.2203 38.3838 10.8451C38.3831 11.4698 38.5898 11.9904 39.0012 12.3857C39.4086 12.7798 39.9011 12.9798 40.461 12.9791C41.0528 12.9801 41.557 12.7794 41.954 12.3814C42.2192 12.1156 42.3694 11.7473 42.4088 11.2895L42.4168 11.1966H40.5465V10.7515H42.9464V10.6661L42.8622 10.6811C42.8857 10.8107 42.8967 10.9339 42.8967 11.0531H42.9822H43.0677C43.0677 10.9232 43.0556 10.7897 43.0306 10.6508L43.0179 10.5806H40.3756V11.2821V11.3676H42.3236V11.2821L42.2385 11.2748C42.2008 11.7049 42.0638 12.0288 41.8331 12.2606C41.4658 12.6265 41.0151 12.8071 40.461 12.8082C39.9411 12.8075 39.5001 12.6285 39.1197 12.2629C38.7431 11.8985 38.5557 11.4334 38.5548 10.8451C38.5557 10.2567 38.7431 9.79157 39.1197 9.42725C39.5001 9.06164 39.9411 8.88264 40.461 8.88195C41.0391 8.88332 41.4756 9.07429 41.7998 9.45999L41.8599 9.53145L42.3765 9.0142L42.4318 8.9588L42.3814 8.89897C42.1714 8.64859 41.8916 8.44984 41.5476 8.3023C41.203 8.15433 40.8394 8.08021 40.461 8.08021C39.7011 8.07953 39.0453 8.34666 38.5133 8.87529C37.9794 9.40288 37.7103 10.0661 37.711 10.8451C37.7103 11.6237 37.9794 12.2872 38.5137 12.8152C39.0453 13.3435 39.7011 13.6102 40.461 13.6096C41.2524 13.6102 41.9089 13.3474 42.4071 12.8241L42.3453 12.7651L42.4058 12.8255C42.8486 12.3831 43.0683 11.7854 43.0677 11.0531H42.9822Z" fill="white"/>
<path d="M46.9223 8.91066H44.5866V10.5369H46.6929V11.1532H44.5866V12.7794H46.9223V13.4095H43.9281V8.28057H46.9223V8.91066Z" fill="white"/>
<path d="M46.9223 8.91068V8.82519H44.5011V10.6224H46.6075V11.0675L44.5011 11.0677V12.8649H46.8368V13.324H44.0136V8.36607H46.8368V8.91068H46.9223V8.82519V8.91068H47.0078V8.28059V8.1951H43.8426V13.495H47.0078V12.7794V12.694H44.6721V11.2387H46.7784V10.5369V10.4514H44.6721V8.99616H47.0078V8.91068H46.9223" fill="white"/>
<path d="M49.7015 13.4095H49.042V8.91066H47.6095V8.28057H51.134V8.91066H49.7015V13.4095Z" fill="white"/>
<path d="M49.7015 13.4095V13.324H49.1275V8.82519H47.695V8.36607H51.0485V8.82519H49.616V13.4095H49.7015V13.324V13.4095H49.787V8.99616H51.2195V8.28059V8.1951H47.524V8.91068V8.99616H48.9565V13.495H49.7015H49.787V13.4095H49.7015" fill="white"/>
<path d="M53.6841 13.4095V8.28057H54.3429V13.4095H53.6841Z" fill="white"/>
<path d="M53.6841 13.4095H53.7696V8.36607H54.2575V13.324H53.6841V13.4095H53.7696H53.6841V13.495H54.343H54.4284V8.1951H53.6841H53.5987V13.495H53.6841V13.4095Z" fill="white"/>
<path d="M57.2664 13.4095H56.6069V8.91066H55.1744V8.28057H58.6989V8.91066H57.2664V13.4095Z" fill="white"/>
<path d="M57.2663 13.4095V13.324H56.6923V8.82519H55.2599V8.36607H58.6134V8.82519H57.1809V13.4095H57.2663V13.324V13.4095H57.3518V8.99616H58.7844V8.28059V8.1951H55.0889V8.91068V8.99616H56.5214V13.495H57.2663H57.3518V13.4095H57.2663" fill="white"/>
<path d="M62.0968 12.3173C62.4764 12.7016 62.9409 12.8936 63.4902 12.8936C64.0395 12.8936 64.5043 12.7016 64.8833 12.3173C65.2633 11.933 65.4537 11.4417 65.4537 10.845C65.4537 10.2484 65.2633 9.75712 64.8833 9.37279C64.5043 8.98846 64.0395 8.79646 63.4902 8.79646C62.9409 8.79646 62.4764 8.98846 62.0968 9.37279C61.7178 9.75712 61.5275 10.2484 61.5275 10.845C61.5275 11.4417 61.7178 11.933 62.0968 12.3173ZM65.3708 12.7467C64.8666 13.2652 64.2395 13.5241 63.4902 13.5241C62.7402 13.5241 62.1135 13.2652 61.6103 12.7467C61.1057 12.2288 60.8546 11.5947 60.8546 10.845C60.8546 10.0954 61.1057 9.46126 61.6103 8.94341C62.1135 8.42479 62.7402 8.16569 63.4902 8.16569C64.2356 8.16569 64.8609 8.42616 65.3675 8.94674C65.8734 9.46733 66.1265 10.1001 66.1265 10.845C66.1265 11.5947 65.874 12.2288 65.3708 12.7467Z" fill="white"/>
<path d="M62.0968 12.3173L62.036 12.3774C62.4297 12.7771 62.9209 12.9802 63.4902 12.9791C64.0592 12.9802 64.5511 12.7771 64.9441 12.3774C65.3404 11.9774 65.5398 11.4598 65.5392 10.8451C65.5398 10.2304 65.3404 9.71276 64.9441 9.3127C64.5511 8.91299 64.0592 8.70997 63.4902 8.71099C62.9209 8.70997 62.4297 8.91299 62.036 9.3127C61.6407 9.71276 61.441 10.2304 61.442 10.8451C61.441 11.4598 61.6407 11.9774 62.036 12.3774L62.0968 12.3173L62.1576 12.2572C61.795 11.8882 61.6136 11.424 61.613 10.8451C61.6136 10.2661 61.795 9.80192 62.1576 9.43289C62.5235 9.06395 62.9606 8.88298 63.4902 8.88196C64.0195 8.88298 64.4576 9.06395 64.8226 9.43289C65.1859 9.80192 65.3672 10.2661 65.3679 10.8451C65.3672 11.424 65.1859 11.8882 64.8226 12.2572C64.4576 12.6262 64.0195 12.8071 63.4902 12.8082C62.9606 12.8071 62.5235 12.6262 62.1576 12.2572L62.0968 12.3173ZM65.3708 12.7467L65.3097 12.6873C64.8196 13.1895 64.2202 13.4376 63.4902 13.4386C62.76 13.4376 62.1606 13.1895 61.6713 12.6873L61.669 12.6846L61.6713 12.6873C61.1822 12.1834 60.9408 11.5757 60.9401 10.8451C60.9408 10.1144 61.1822 9.50675 61.6713 9.00283C62.1606 8.50062 62.76 8.25221 63.4902 8.25118C64.2155 8.25221 64.8135 8.50165 65.3064 9.0065C65.7972 9.51273 66.04 10.1195 66.041 10.8451C66.04 11.5757 65.7979 12.1834 65.3097 12.6873L65.3708 12.7467L65.4323 12.8061C65.9505 12.2739 66.2126 11.6137 66.212 10.8451C66.2126 10.0808 65.9495 9.42195 65.4289 8.88734C64.908 8.35068 64.2556 8.07928 63.4902 8.08022C62.7209 8.07928 62.0664 8.3494 61.5488 8.88401V8.88367C61.0296 9.41622 60.7685 10.0764 60.7692 10.8451C60.7685 11.6137 61.0296 12.2739 61.5488 12.8065L61.5512 12.8088L61.5488 12.8061C62.0664 13.3407 62.7209 13.6102 63.4902 13.6096C64.2592 13.6102 64.9137 13.3407 65.4323 12.8061L65.3708 12.7467" fill="white"/>
<path d="M67.0514 13.4095V8.28057H67.8535L70.3462 12.2705H70.3746L70.3462 11.2821V8.28057H71.0057V13.4095H70.3178L67.7099 9.22618H67.6815L67.7099 10.215V13.4095H67.0514Z" fill="white"/>
<path d="M67.0514 13.4095H67.1369V8.36607H67.8061L70.2987 12.356H70.3745H70.4623L70.4316 11.2808V8.36607H70.9202V13.324H70.3652L67.7573 9.14071H67.6815H67.5937L67.6244 10.2163V13.324H67.0514V13.4095H67.1369H67.0514V13.495H67.7099H67.7954V10.2136L67.767 9.22388L67.6815 9.22619V9.31168H67.7099V9.22619L67.6374 9.27167L70.2703 13.495H71.0057H71.0911V8.1951H70.3462H70.2607V11.2832L70.2891 12.2729L70.3745 12.2706V12.1851H70.3462V12.2706L70.4187 12.2252L67.9009 8.1951H67.0514H66.9659V13.495H67.0514V13.4095Z" fill="white"/>
<path d="M93.8592 27.9415H95.4543V17.2552H93.8592V27.9415ZM108.226 21.1046L106.398 25.7377H106.343L104.445 21.1046H102.727L105.573 27.5802L103.95 31.1822H105.615L110 21.1046H108.226ZM99.1805 26.7278C98.6573 26.7278 97.929 26.4666 97.929 25.8202C97.929 24.9954 98.8369 24.6792 99.6199 24.6792C100.322 24.6792 100.651 24.8304 101.077 25.0368C100.953 26.0265 100.101 26.7278 99.1805 26.7278V26.7278ZM99.3728 20.8708C98.218 20.8708 97.0221 21.3797 96.5271 22.5071L97.9427 23.0981C98.2453 22.5071 98.8087 22.3144 99.4002 22.3144C100.225 22.3144 101.064 22.8096 101.077 23.6895V23.7993C100.788 23.6343 100.17 23.3869 99.4139 23.3869C97.888 23.3869 96.3339 24.2253 96.3339 25.7927C96.3339 27.2226 97.5854 28.1439 98.9873 28.1439C100.06 28.1439 100.651 27.6627 101.023 27.0991H101.077V27.9238H102.617V23.8267C102.617 21.9297 101.201 20.8708 99.3728 20.8708V20.8708ZM89.515 22.4055H87.2463V18.7425H89.515C90.7075 18.7425 91.3845 19.7298 91.3845 20.574C91.3845 21.4021 90.7075 22.4055 89.515 22.4055ZM89.474 17.2552H85.6521V27.9415H87.2463V23.8928H89.474C91.2418 23.8928 92.9796 22.6129 92.9796 20.574C92.9796 18.5351 91.2418 17.2552 89.474 17.2552ZM68.6325 26.7297C67.5306 26.7297 66.608 25.8071 66.608 24.5399C66.608 23.2594 67.5306 22.3228 68.6325 22.3228C69.7205 22.3228 70.5743 23.2594 70.5743 24.5399C70.5743 25.8071 69.7205 26.7297 68.6325 26.7297V26.7297ZM70.4641 21.703H70.4089C70.051 21.2762 69.3621 20.8906 68.4946 20.8906C66.6768 20.8906 65.0106 22.488 65.0106 24.5399C65.0106 26.5782 66.6768 28.1619 68.4946 28.1619C69.3621 28.1619 70.051 27.7762 70.4089 27.3358H70.4641V27.859C70.4641 29.2502 69.7205 29.9938 68.5223 29.9938C67.5446 29.9938 66.9386 29.2912 66.6905 28.6991L65.2997 29.2775C65.6991 30.2415 66.7596 31.4259 68.5223 31.4259C70.3953 31.4259 71.979 30.324 71.979 27.6387V21.111H70.4641V21.703ZM73.0806 27.9415H74.6781V17.2549H73.0806V27.9415ZM77.0331 24.4161C76.9918 23.0112 78.1211 22.2953 78.9335 22.2953C79.5674 22.2953 80.1043 22.6119 80.2829 23.0667L77.0331 24.4161ZM81.9909 23.2043C81.6882 22.3915 80.765 20.8906 78.8784 20.8906C77.0054 20.8906 75.4494 22.3641 75.4494 24.5262C75.4494 26.5645 76.9918 28.1619 79.0574 28.1619C80.724 28.1619 81.6882 27.1428 82.0874 26.5507L80.848 25.7243C80.4351 26.3303 79.87 26.7297 79.0574 26.7297C78.2449 26.7297 77.6666 26.3578 77.2946 25.6281L82.1558 23.6173L81.9909 23.2043ZM43.2603 22.0061V23.5485H46.951C46.8408 24.4161 46.5517 25.0495 46.1109 25.4902C45.574 26.0275 44.7339 26.6195 43.2603 26.6195C40.988 26.6195 39.2115 24.788 39.2115 22.5157C39.2115 20.2434 40.988 18.4116 43.2603 18.4116C44.4861 18.4116 45.381 18.8937 46.0421 19.5135L47.13 18.4256C46.2074 17.544 44.9816 16.8692 43.2603 16.8692C40.1478 16.8692 37.5313 19.4033 37.5313 22.5157C37.5313 25.6281 40.1478 28.1619 43.2603 28.1619C44.9406 28.1619 46.2074 27.6113 47.1989 26.5782C48.218 25.559 48.5349 24.1269 48.5349 22.9702C48.5349 22.6119 48.5074 22.2816 48.452 22.0061H43.2603ZM52.7308 26.7297C51.6289 26.7297 50.6786 25.8208 50.6786 24.5262C50.6786 23.2179 51.6289 22.3228 52.7308 22.3228C53.8324 22.3228 54.7827 23.2179 54.7827 24.5262C54.7827 25.8208 53.8324 26.7297 52.7308 26.7297V26.7297ZM52.7308 20.8906C50.72 20.8906 49.0811 22.4192 49.0811 24.5262C49.0811 26.6195 50.72 28.1619 52.7308 28.1619C54.7413 28.1619 56.3802 26.6195 56.3802 24.5262C56.3802 22.4192 54.7413 20.8906 52.7308 20.8906ZM60.692 26.7297C59.5905 26.7297 58.6401 25.8208 58.6401 24.5262C58.6401 23.2179 59.5905 22.3228 60.692 22.3228C61.7936 22.3228 62.7439 23.2179 62.7439 24.5262C62.7439 25.8208 61.7936 26.7297 60.692 26.7297ZM60.692 20.8906C58.6812 20.8906 57.0427 22.4192 57.0427 24.5262C57.0427 26.6195 58.6812 28.1619 60.692 28.1619C62.7025 28.1619 64.3414 26.6195 64.3414 24.5262C64.3414 22.4192 62.7025 20.8906 60.692 20.8906Z" fill="white"/>
<path d="M11.4318 29.9841L11.3683 29.9233C11.1195 29.6601 10.9727 29.2514 10.9727 28.7222V28.8468V9.94148C10.9727 9.93977 10.9727 9.93849 10.9727 9.93712C10.9727 9.93875 10.9727 9.94011 10.9727 9.94182V10.0667C10.9727 9.49364 11.1439 9.06195 11.4308 8.80311L22.0219 19.3939L11.4318 29.9841ZM10.9727 9.9361C10.9727 9.889 10.974 9.84326 10.9764 9.79821C10.974 9.84292 10.9727 9.889 10.9727 9.9361ZM10.9764 9.79616C10.9764 9.79556 10.9764 9.79488 10.9766 9.7942C10.9764 9.79488 10.9764 9.79556 10.9764 9.79616ZM10.9766 9.79018C10.9766 9.78984 10.9766 9.7895 10.9766 9.78915C10.9766 9.7895 10.9766 9.78984 10.9766 9.79018Z" fill="url(#paint0_linear)"/>
<path d="M25.5517 23.0506L25.6322 23.0049L29.8148 20.6284C30.2136 20.4017 30.4793 20.1269 30.6119 19.8361C30.4797 20.1269 30.2138 20.4021 29.8148 20.6288L25.6322 23.0053L25.5517 23.0506V23.0506ZM25.5527 22.9254L22.0219 19.394L25.5524 15.8631L29.8148 18.2847C30.3561 18.5922 30.66 18.9886 30.7107 19.3936C30.7107 19.394 30.7107 19.3947 30.7107 19.3952C30.66 19.7993 30.3561 20.196 29.8148 20.5035L25.5527 22.9254" fill="url(#paint1_linear)"/>
<path d="M12.1868 30.3874C11.8909 30.3874 11.6328 30.2913 11.4315 30.1096L11.4318 30.1093C11.6331 30.2909 11.8916 30.3874 12.1875 30.3874C12.2131 30.3874 12.2392 30.3867 12.2656 30.3855C12.2389 30.3867 12.2124 30.3874 12.1868 30.3874V30.3874ZM12.1871 30.2622C11.8913 30.2625 11.6331 30.166 11.4318 29.9844V29.9841L22.0219 19.394L25.5527 22.9254L13.1448 29.9754C12.8015 30.17 12.4762 30.2622 12.1871 30.2622V30.2622ZM11.4288 30.1073C11.4101 30.0903 11.3917 30.0722 11.3737 30.0535L11.4288 30.1073Z" fill="url(#paint2_linear)"/>
<path d="M22.0219 19.394L11.4308 8.80312C11.6321 8.62181 11.8899 8.52564 12.1854 8.52564C12.4753 8.52564 12.8008 8.61813 13.1448 8.81312L25.5524 15.8631L22.0219 19.394ZM25.6322 15.7833L13.1448 8.68831C12.8008 8.49324 12.4753 8.40075 12.1854 8.40075C12.1841 8.40075 12.1831 8.40075 12.1818 8.40075C12.1835 8.40075 12.1848 8.40075 12.1868 8.40075C12.476 8.40075 12.8012 8.4929 13.1448 8.68797L25.6322 15.7833Z" fill="url(#paint3_linear)"/>
<path d="M12.2656 30.3855C12.5344 30.3701 12.8319 30.2776 13.1448 30.1003L25.5517 23.0507L13.1448 30.1003C12.8322 30.2779 12.5344 30.3701 12.2656 30.3855V30.3855ZM11.4315 30.1096L11.4288 30.1073C11.4298 30.108 11.4308 30.1089 11.4315 30.1096ZM11.3737 30.0535L11.3683 30.0482V30.0479C11.3704 30.0499 11.372 30.0518 11.3737 30.0535Z" fill="black"/>
<path d="M25.5517 23.0506L25.6322 23.0049L25.5517 23.0506Z" fill="url(#paint4_linear)"/>
<path d="M12.1875 30.3874C11.8916 30.3874 11.6331 30.2909 11.4318 30.1093L11.4315 30.1096C11.4308 30.1089 11.4298 30.108 11.4288 30.1073L11.3737 30.0535C11.372 30.0518 11.3704 30.0499 11.3683 30.0479L11.4318 29.9844C11.6331 30.166 11.8913 30.2625 12.1871 30.2622C12.4762 30.2622 12.8015 30.17 13.1448 29.9754L25.5527 22.9254L25.6322 23.0049L25.5517 23.0506L13.1448 30.1003C12.8319 30.2776 12.5344 30.3701 12.2656 30.3855C12.2392 30.3867 12.2131 30.3874 12.1875 30.3874" fill="url(#paint5_linear)"/>
<path d="M11.3683 30.0482C11.1195 29.785 10.9727 29.3763 10.9727 28.8471V28.8468C10.9727 29.3763 11.1195 29.7847 11.3683 30.0479V30.0482" fill="black"/>
<path d="M11.3683 30.0479C11.1195 29.7847 10.9727 29.3763 10.9727 28.8468V28.7222C10.9727 29.2514 11.1195 29.6601 11.3683 29.9233L11.4318 29.9841L11.3683 30.0479" fill="url(#paint6_linear)"/>
<path d="M11.3683 30.0479L11.4318 29.9841V29.9844L11.3683 30.0479" fill="url(#paint7_linear)"/>
<path d="M30.6119 19.8361C30.6777 19.6918 30.7107 19.5436 30.7107 19.3953C30.7107 19.395 30.7107 19.3947 30.7107 19.3947C30.7107 19.5432 30.6777 19.6915 30.6119 19.8361Z" fill="black"/>
<path d="M25.6322 23.0049L25.5527 22.9254L29.8148 20.5035C30.3561 20.196 30.66 19.7993 30.7108 19.3953C30.7108 19.5436 30.6777 19.6918 30.6119 19.8361C30.4794 20.1269 30.2136 20.4017 29.8148 20.6284L25.6322 23.0049Z" fill="url(#paint8_linear)"/>
<path d="M30.7107 19.394V19.3936C30.7104 18.9465 30.4115 18.4994 29.8148 18.1601L25.6322 15.7836H25.6319L25.6322 15.7833L29.8148 18.1598C30.4122 18.499 30.7114 18.9468 30.7107 19.394Z" fill="#404040"/>
<path d="M30.7107 19.3936C30.66 18.9886 30.3561 18.5922 29.8148 18.2847L25.5524 15.8631L25.6319 15.7836H25.6322L29.8148 18.1601C30.4116 18.4994 30.7104 18.9465 30.7107 19.3936Z" fill="url(#paint9_linear)"/>
<path d="M10.9727 9.93713C10.9727 9.93679 10.9727 9.93645 10.9727 9.93611C10.9727 9.93645 10.9727 9.93679 10.9727 9.93713ZM10.9764 9.79822C10.9764 9.79754 10.9764 9.79686 10.9764 9.79617C10.9764 9.79686 10.9764 9.79754 10.9764 9.79822ZM10.9766 9.79421C10.9766 9.79284 10.9766 9.79156 10.9766 9.79019C10.9766 9.79156 10.9766 9.79284 10.9766 9.79421ZM10.9766 9.78916C11.0261 8.911 11.5036 8.40375 12.1791 8.40076C11.8862 8.40247 11.6312 8.49864 11.4315 8.67858V8.67824L11.4291 8.68063C11.408 8.6996 11.388 8.71969 11.3683 8.74038C11.1439 8.97776 11.0023 9.33337 10.9766 9.78916Z" fill="#404040"/>
<path d="M10.9727 10.0667V9.94184C10.9727 9.94013 10.9727 9.93876 10.9727 9.93714C10.9727 9.93679 10.9727 9.93645 10.9727 9.93611C10.9727 9.88901 10.974 9.84293 10.9764 9.79823C10.9764 9.79754 10.9764 9.79686 10.9764 9.79618C10.9764 9.79558 10.9764 9.79489 10.9766 9.79421C10.9766 9.79284 10.9766 9.79156 10.9766 9.79019C10.9766 9.78985 10.9766 9.78951 10.9766 9.78917C11.0023 9.33337 11.1439 8.97777 11.3683 8.74038L11.4308 8.80313C11.1439 9.06197 10.9727 9.49365 10.9727 10.0667V10.0667ZM11.4291 8.68063L11.4315 8.67824C11.4308 8.67926 11.4298 8.67995 11.4291 8.68063Z" fill="url(#paint10_linear)"/>
<path d="M25.5524 15.8631L13.1448 8.81313C12.8008 8.61814 12.4753 8.52565 12.1854 8.52565C11.8899 8.52565 11.6321 8.62182 11.4308 8.80313L11.3683 8.74038C11.388 8.71969 11.4081 8.69961 11.4291 8.68063C11.4298 8.67994 11.4308 8.67926 11.4315 8.67858C11.6312 8.49864 11.8862 8.40247 12.1791 8.40076C12.1798 8.40076 12.1807 8.40076 12.1818 8.40076C12.1831 8.40076 12.1841 8.40076 12.1854 8.40076C12.4753 8.40076 12.8008 8.49325 13.1448 8.68832L25.6322 15.7834L25.6319 15.7836L25.5524 15.8631Z" fill="url(#paint11_linear)"/>
<defs>
<linearGradient id="paint0_linear" x1="21.0828" y1="9.74205" x2="6.7367" y2="24.0881" gradientUnits="userSpaceOnUse">
<stop stop-color="#00A0FF"/>
<stop offset="0.00657445" stop-color="#00A1FF"/>
<stop offset="0.2601" stop-color="#00BEFF"/>
<stop offset="0.5122" stop-color="#00D2FF"/>
<stop offset="0.7604" stop-color="#00DFFF"/>
<stop offset="1" stop-color="#00E3FF"/>
</linearGradient>
<linearGradient id="paint1_linear" x1="31.3702" y1="19.3945" x2="10.6861" y2="19.3945" gradientUnits="userSpaceOnUse">
<stop stop-color="#FFE000"/>
<stop offset="0.4087" stop-color="#FFBD00"/>
<stop offset="0.7754" stop-color="#FFA500"/>
<stop offset="1" stop-color="#FF9C00"/>
</linearGradient>
<linearGradient id="paint2_linear" x1="23.6705" y1="21.356" x2="4.21616" y2="40.8104" gradientUnits="userSpaceOnUse">
<stop stop-color="#FF3A44"/>
<stop offset="1" stop-color="#C31162"/>
</linearGradient>
<linearGradient id="paint3_linear" x1="8.68571" y1="2.44742" x2="17.3728" y2="11.1346" gradientUnits="userSpaceOnUse">
<stop stop-color="#32A071"/>
<stop offset="0.0685" stop-color="#2DA771"/>
<stop offset="0.4762" stop-color="#15CF74"/>
<stop offset="0.8009" stop-color="#06E775"/>
<stop offset="1" stop-color="#00F076"/>
</linearGradient>
<linearGradient id="paint4_linear" x1="31.37" y1="19.3944" x2="10.6867" y2="19.3944" gradientUnits="userSpaceOnUse">
<stop stop-color="#CCB300"/>
<stop offset="0.4087" stop-color="#CC9700"/>
<stop offset="0.7754" stop-color="#CC8400"/>
<stop offset="1" stop-color="#CC7D00"/>
</linearGradient>
<linearGradient id="paint5_linear" x1="23.6705" y1="21.356" x2="4.21616" y2="40.8104" gradientUnits="userSpaceOnUse">
<stop stop-color="#CC2E36"/>
<stop offset="1" stop-color="#9C0E4E"/>
</linearGradient>
<linearGradient id="paint6_linear" x1="21.0828" y1="9.74204" x2="6.73669" y2="24.0881" gradientUnits="userSpaceOnUse">
<stop stop-color="#008DE0"/>
<stop offset="0.00657445" stop-color="#008DE0"/>
<stop offset="0.2601" stop-color="#00A7E0"/>
<stop offset="0.5122" stop-color="#00B8E0"/>
<stop offset="0.7604" stop-color="#00C4E0"/>
<stop offset="1" stop-color="#00C7E0"/>
</linearGradient>
<linearGradient id="paint7_linear" x1="23.6706" y1="21.3564" x2="4.21723" y2="40.811" gradientUnits="userSpaceOnUse">
<stop stop-color="#E0333C"/>
<stop offset="1" stop-color="#AB0F56"/>
</linearGradient>
<linearGradient id="paint8_linear" x1="31.3703" y1="19.3945" x2="10.6861" y2="19.3945" gradientUnits="userSpaceOnUse">
<stop stop-color="#E0C500"/>
<stop offset="0.4087" stop-color="#E0A600"/>
<stop offset="0.7754" stop-color="#E09100"/>
<stop offset="1" stop-color="#E08900"/>
</linearGradient>
<linearGradient id="paint9_linear" x1="31.3702" y1="19.3945" x2="10.6861" y2="19.3945" gradientUnits="userSpaceOnUse">
<stop stop-color="#FFE840"/>
<stop offset="0.4087" stop-color="#FFCE40"/>
<stop offset="0.7754" stop-color="#FFBC40"/>
<stop offset="1" stop-color="#FFB540"/>
</linearGradient>
<linearGradient id="paint10_linear" x1="21.0828" y1="9.74206" x2="6.73668" y2="24.0881" gradientUnits="userSpaceOnUse">
<stop stop-color="#40B8FF"/>
<stop offset="0.00657445" stop-color="#40B9FF"/>
<stop offset="0.2601" stop-color="#40CEFF"/>
<stop offset="0.5122" stop-color="#40DDFF"/>
<stop offset="0.7604" stop-color="#40E7FF"/>
<stop offset="1" stop-color="#40EAFF"/>
</linearGradient>
<linearGradient id="paint11_linear" x1="8.68569" y1="2.44743" x2="17.3728" y2="11.1346" gradientUnits="userSpaceOnUse">
<stop stop-color="#65B895"/>
<stop offset="0.0685" stop-color="#62BD95"/>
<stop offset="0.4762" stop-color="#50DB97"/>
<stop offset="0.8009" stop-color="#44ED98"/>
<stop offset="1" stop-color="#40F498"/>
</linearGradient>
</defs>
</svg>
