<svg width="207" height="33" viewBox="0 0 207 33" fill="none" xmlns="http://www.w3.org/2000/svg">
<mask id="mask0" mask-type="alpha" maskUnits="userSpaceOnUse" x="0" y="3" width="31" height="30">
<circle cx="15.5" cy="18.3708" r="14.6292" fill="#70D78C"/>
</mask>
<g mask="url(#mask0)">
<rect x="0.522461" y="3.74158" width="29.6067" height="13.236" fill="#70D78C"/>
</g>
<circle cx="8.5337" cy="11.7528" r="1.39326" fill="white"/>
<circle cx="22.118" cy="11.7528" r="1.39326" fill="white"/>
<line x1="22.0503" y1="4.09965" x2="23.1727" y2="2.41603" stroke="#70D78C" stroke-width="3" stroke-linecap="round"/>
<line x1="1.5" y1="-1.5" x2="3.52346" y2="-1.5" transform="matrix(-0.5547 -0.83205 -0.83205 0.5547 8.18542 6.17978)" stroke="#70D78C" stroke-width="3" stroke-linecap="round"/>
<path d="M52.0892 16L48.2812 4.8H45.2252L41.4172 16H43.5292L44.7132 12.368H48.7932L49.9772 16H52.0892ZM46.5052 6.912L46.6172 5.936H46.8892L47.0012 6.912L48.1852 10.528H45.3212L46.5052 6.912ZM55.4672 16V11.952C55.4672 10.576 56.1712 9.728 57.2752 9.728C58.2672 9.728 58.7632 10.32 58.7632 11.472V16H60.6512V11.168C60.6512 9.088 59.7072 8 57.8832 8C56.6032 8 55.7232 8.784 55.2592 10.304H54.9872L55.4672 8.224H53.5792V16H55.4672ZM65.8037 16.224C67.1957 16.224 68.1557 15.424 68.5877 13.92H68.8597L68.3797 16H70.2677V4.8H68.3797V8.224L68.8597 10.304H68.5877C68.1557 8.8 67.1957 8 65.8037 8C64.6517 8 63.7077 8.496 63.0837 9.392C62.6197 10.08 62.3637 11.008 62.3637 12.112C62.3637 13.216 62.6197 14.144 63.0837 14.832C63.7077 15.728 64.6517 16.224 65.8037 16.224ZM66.3477 14.56C65.6597 14.56 65.0997 14.288 64.7477 13.776C64.4597 13.376 64.2837 12.8 64.2837 12.112C64.2837 11.424 64.4597 10.848 64.7477 10.448C65.0997 9.936 65.6597 9.664 66.3477 9.664C67.0517 9.664 67.6117 9.936 67.9637 10.448C68.2517 10.848 68.4117 11.424 68.4117 12.112C68.4117 12.8 68.2517 13.376 67.9637 13.776C67.6117 14.288 67.0517 14.56 66.3477 14.56ZM74.561 16V11.84C74.561 10.48 75.009 9.76 75.857 9.76C76.561 9.76 76.913 10.176 76.913 11.2V12.256H78.849V10.56C78.849 8.944 78.145 8 76.705 8C75.521 8 74.673 8.768 74.289 10.464H74.001L74.545 8.224H72.673V16H74.561ZM83.8782 16.224C85.3342 16.224 86.5182 15.632 87.2222 14.576C87.6862 13.92 87.9422 13.072 87.9422 12.112C87.9422 11.152 87.6862 10.304 87.2222 9.648C86.5182 8.592 85.3342 8 83.8782 8C82.4382 8 81.2542 8.592 80.5502 9.648C80.0862 10.304 79.8302 11.152 79.8302 12.112C79.8302 13.072 80.0862 13.92 80.5502 14.576C81.2542 15.632 82.4382 16.224 83.8782 16.224ZM83.8782 14.56C83.1582 14.56 82.5662 14.24 82.1982 13.696C81.9102 13.28 81.7502 12.752 81.7502 12.112C81.7502 11.472 81.9102 10.944 82.1982 10.528C82.5662 9.984 83.1582 9.664 83.8782 9.664C84.6142 9.664 85.2062 9.984 85.5742 10.528C85.8462 10.944 86.0062 11.472 86.0062 12.112C86.0062 12.752 85.8462 13.28 85.5742 13.696C85.2062 14.24 84.6142 14.56 83.8782 14.56ZM91.7038 7.12V5.152H89.6398V7.12H91.7038ZM91.6078 16V8.224H89.7198V16H91.6078ZM96.9131 16.224C98.3051 16.224 99.2651 15.424 99.6971 13.92H99.9691L99.4891 16H101.377V4.8H99.4891V8.224L99.9691 10.304H99.6971C99.2651 8.8 98.3051 8 96.9131 8C95.7611 8 94.8171 8.496 94.1931 9.392C93.7291 10.08 93.4731 11.008 93.4731 12.112C93.4731 13.216 93.7291 14.144 94.1931 14.832C94.8171 15.728 95.7611 16.224 96.9131 16.224ZM97.4571 14.56C96.7691 14.56 96.2091 14.288 95.8571 13.776C95.5691 13.376 95.3931 12.8 95.3931 12.112C95.3931 11.424 95.5691 10.848 95.8571 10.448C96.2091 9.936 96.7691 9.664 97.4571 9.664C98.1611 9.664 98.7211 9.936 99.0731 10.448C99.3611 10.848 99.5211 11.424 99.5211 12.112C99.5211 12.8 99.3611 13.376 99.0731 13.776C98.7211 14.288 98.1611 14.56 97.4571 14.56ZM110.935 16.224C113.015 16.224 114.471 15.024 114.519 13.104H112.647C112.519 14.048 111.927 14.56 110.983 14.56C110.327 14.56 109.815 14.304 109.495 13.824C109.207 13.408 109.047 12.848 109.047 12.144C109.047 11.408 109.207 10.848 109.511 10.416C109.847 9.936 110.375 9.664 111.063 9.664C112.039 9.664 112.663 10.192 112.807 11.12H114.679C114.615 9.216 113.127 8 111.047 8C109.655 8 108.551 8.512 107.863 9.488C107.399 10.16 107.127 11.056 107.127 12.144C107.127 13.2 107.367 14.08 107.847 14.752C108.503 15.712 109.575 16.224 110.935 16.224ZM119.847 16.224C121.303 16.224 122.487 15.632 123.191 14.576C123.655 13.92 123.911 13.072 123.911 12.112C123.911 11.152 123.655 10.304 123.191 9.648C122.487 8.592 121.303 8 119.847 8C118.407 8 117.223 8.592 116.519 9.648C116.055 10.304 115.799 11.152 115.799 12.112C115.799 13.072 116.055 13.92 116.519 14.576C117.223 15.632 118.407 16.224 119.847 16.224ZM119.847 14.56C119.127 14.56 118.535 14.24 118.167 13.696C117.879 13.28 117.719 12.752 117.719 12.112C117.719 11.472 117.879 10.944 118.167 10.528C118.535 9.984 119.127 9.664 119.847 9.664C120.583 9.664 121.175 9.984 121.543 10.528C121.815 10.944 121.975 11.472 121.975 12.112C121.975 12.752 121.815 13.28 121.543 13.696C121.175 14.24 120.583 14.56 119.847 14.56ZM127.577 16V11.84C127.577 10.528 128.121 9.728 129.161 9.728C129.913 9.728 130.457 10.304 130.457 11.408V16H132.345V11.84C132.345 10.544 132.921 9.728 133.945 9.728C134.777 9.728 135.209 10.304 135.209 11.408V16H137.097V11.024C137.097 9.04 136.233 8 134.617 8C133.433 8 132.489 8.624 132.089 10.304H131.817C131.817 8.784 130.889 8 129.769 8C128.521 8 127.769 8.816 127.369 10.304H127.097L127.577 8.224H125.689V16H127.577ZM141.313 7.12V5.152H139.249V7.12H141.313ZM141.217 16V8.224H139.329V16H141.217ZM145.498 16V11.952C145.498 10.576 146.202 9.728 147.306 9.728C148.298 9.728 148.794 10.32 148.794 11.472V16H150.682V11.168C150.682 9.088 149.738 8 147.914 8C146.634 8 145.754 8.784 145.29 10.304H145.018L145.498 8.224H143.61V16H145.498ZM156.107 19.088C158.651 19.088 159.931 17.696 159.931 14.896V8.224H158.059L158.635 10.32H158.363C157.931 8.688 156.939 8 155.739 8C154.603 8 153.659 8.464 153.083 9.312C152.635 9.952 152.395 10.784 152.395 11.744C152.395 12.72 152.635 13.552 153.083 14.176C153.659 15.024 154.603 15.504 155.739 15.504C156.939 15.504 157.931 14.816 158.363 13.184H158.635L158.043 15.296V15.504C158.043 16.8 157.339 17.52 156.107 17.52C154.923 17.52 154.331 16.96 154.251 16.032H152.395C152.491 17.984 153.739 19.088 156.107 19.088ZM156.203 13.936C155.563 13.936 155.035 13.664 154.715 13.2C154.427 12.784 154.299 12.32 154.299 11.744C154.299 11.184 154.427 10.72 154.715 10.304C155.035 9.824 155.563 9.568 156.203 9.568C156.843 9.568 157.371 9.824 157.691 10.304C157.979 10.72 158.107 11.184 158.107 11.744C158.107 12.32 157.979 12.784 157.691 13.2C157.371 13.664 156.843 13.936 156.203 13.936ZM168.891 16.224C169.995 16.224 170.859 15.936 171.387 15.392C171.803 14.992 172.011 14.464 172.011 13.808C172.011 12.496 171.291 11.776 169.691 11.44L168.683 11.216C167.995 11.072 167.675 10.8 167.675 10.336C167.675 10.112 167.755 9.92 167.899 9.776C168.107 9.568 168.443 9.472 168.907 9.472C169.819 9.472 170.299 9.888 170.299 10.688V10.768H172.123V10.688C172.123 9.024 170.955 8 168.987 8C167.867 8 167.003 8.288 166.459 8.832C166.059 9.232 165.851 9.76 165.851 10.4C165.851 11.68 166.571 12.432 168.011 12.72L169.163 12.976C169.899 13.12 170.171 13.408 170.171 13.888C170.171 14.112 170.091 14.304 169.947 14.448C169.739 14.656 169.403 14.752 168.939 14.752C168.027 14.752 167.563 14.352 167.563 13.552V13.456H165.739V13.552C165.739 15.232 166.907 16.224 168.891 16.224ZM177.519 16.224C178.975 16.224 180.159 15.632 180.863 14.576C181.327 13.92 181.583 13.072 181.583 12.112C181.583 11.152 181.327 10.304 180.863 9.648C180.159 8.592 178.975 8 177.519 8C176.079 8 174.895 8.592 174.191 9.648C173.727 10.304 173.471 11.152 173.471 12.112C173.471 13.072 173.727 13.92 174.191 14.576C174.895 15.632 176.079 16.224 177.519 16.224ZM177.519 14.56C176.799 14.56 176.207 14.24 175.839 13.696C175.551 13.28 175.391 12.752 175.391 12.112C175.391 11.472 175.551 10.944 175.839 10.528C176.207 9.984 176.799 9.664 177.519 9.664C178.255 9.664 178.847 9.984 179.215 10.528C179.487 10.944 179.647 11.472 179.647 12.112C179.647 12.752 179.487 13.28 179.215 13.696C178.847 14.24 178.255 14.56 177.519 14.56ZM186.784 16.224C188.24 16.224 189.424 15.632 190.128 14.576C190.592 13.92 190.848 13.072 190.848 12.112C190.848 11.152 190.592 10.304 190.128 9.648C189.424 8.592 188.24 8 186.784 8C185.344 8 184.16 8.592 183.456 9.648C182.992 10.304 182.736 11.152 182.736 12.112C182.736 13.072 182.992 13.92 183.456 14.576C184.16 15.632 185.344 16.224 186.784 16.224ZM186.784 14.56C186.064 14.56 185.472 14.24 185.104 13.696C184.816 13.28 184.656 12.752 184.656 12.112C184.656 11.472 184.816 10.944 185.104 10.528C185.472 9.984 186.064 9.664 186.784 9.664C187.52 9.664 188.112 9.984 188.48 10.528C188.752 10.944 188.912 11.472 188.912 12.112C188.912 12.752 188.752 13.28 188.48 13.696C188.112 14.24 187.52 14.56 186.784 14.56ZM194.514 16V11.952C194.514 10.576 195.218 9.728 196.322 9.728C197.314 9.728 197.81 10.32 197.81 11.472V16H199.698V11.168C199.698 9.088 198.754 8 196.93 8C195.65 8 194.77 8.784 194.306 10.304H194.034L194.514 8.224H192.626V16H194.514ZM204.035 12.512V4.8H202.083V12.512H204.035ZM204.275 16V13.696H201.859V16H204.275Z" fill="black"/>
</svg>
