<svg width="223" height="65" viewBox="0 0 223 65" fill="none" xmlns="http://www.w3.org/2000/svg">
<g clip-path="url(#clip0)">
<path d="M0.809998 8.66667C0.809998 3.8802 4.72759 0 9.5602 0H213.44C218.272 0 222.19 3.8802 222.19 8.66667V56.3333C222.19 61.1198 218.272 65 213.44 65H9.56019C4.72759 65 0.809998 61.1198 0.809998 56.3333V8.66667Z" fill="black"/>
<path fill-rule="evenodd" clip-rule="evenodd" d="M0.809998 56.3333V8.66667C0.809998 3.8802 4.72759 0 9.56019 0H213.44C218.272 0 222.19 3.8802 222.19 8.66667V56.3333C222.19 61.1198 218.272 65 213.44 65H9.5602C4.7276 65 0.809998 61.1198 0.809998 56.3333ZM2.12253 56.3333V8.66667C2.12253 4.59817 5.45248 1.3 9.56019 1.3H213.44C217.548 1.3 220.877 4.59817 220.877 8.66667V56.3333C220.877 60.4018 217.548 63.7 213.44 63.7H9.5602C5.45249 63.7 2.12253 60.4018 2.12253 56.3333Z" fill="white" fill-opacity="0.3"/>
<path d="M47.4889 39.469C52.7306 36.5919 56.7047 34.3999 57.0472 34.2297C58.1426 33.647 59.2743 32.1056 57.0472 30.9083C56.3281 30.5319 52.4563 28.4077 47.4889 25.669L40.603 32.62L47.4885 39.469H47.4889Z" fill="#FFD900"/>
<path d="M40.603 32.62L18.6766 54.7084C19.1909 54.7767 19.772 54.6402 20.4573 54.2637C21.8956 53.4771 37.1416 45.1545 47.4892 39.4705L40.603 32.62V32.62Z" fill="#F43249"/>
<path d="M40.603 32.62L47.4885 25.7028C47.4885 25.7028 21.9995 11.799 20.457 10.9786C19.8766 10.6336 19.2254 10.5316 18.6428 10.6336L40.603 32.6197V32.62Z" fill="#00EE76"/>
<path d="M40.603 32.6202L18.6424 10.6341C17.7511 10.84 16.9979 11.627 16.9979 13.236V52.1056C16.9979 53.5792 17.5808 54.6403 18.6762 54.7423L40.6026 32.6198L40.603 32.6202Z" fill="#00D3FF"/>
<path d="M112.981 35.3121C109.041 35.3121 105.786 38.3594 105.786 42.5375C105.786 46.6816 109.007 49.763 112.981 49.763C116.955 49.763 120.175 46.7157 120.175 42.5375C120.175 38.3594 116.955 35.3121 112.981 35.3121ZM112.981 46.8878C110.822 46.8878 108.939 45.0723 108.939 42.5053C108.939 39.9027 110.823 38.1228 112.981 38.1228C115.138 38.1228 117.023 39.9027 117.023 42.5053C117.023 45.0723 115.138 46.8878 112.981 46.8878ZM97.324 35.3121C93.3499 35.3121 90.129 38.3594 90.129 42.5375C90.129 46.6816 93.3499 49.763 97.324 49.763C101.298 49.763 104.519 46.7157 104.519 42.5375C104.519 38.3594 101.298 35.3121 97.3236 35.3121H97.324ZM97.324 46.8878C95.1648 46.8878 93.282 45.0723 93.282 42.5053C93.282 39.9027 95.1666 38.1228 97.324 38.1228C99.4829 38.1228 101.366 39.9027 101.366 42.5053C101.366 45.0723 99.5152 46.8878 97.324 46.8878ZM78.7205 37.5382V40.5855H85.9831C85.7768 42.2976 85.196 43.5646 84.3389 44.4213C83.2773 45.4825 81.6327 46.6475 78.7205 46.6475C74.2317 46.6475 70.7727 43.0179 70.7727 38.5315C70.7727 34.0451 74.2336 30.3469 78.7205 30.3469C81.1521 30.3469 82.9006 31.306 84.2023 32.5393L86.3597 30.381C84.5433 28.6352 82.1117 27.3 78.7205 27.3C72.5872 27.3 67.4479 32.3331 67.4479 38.4632C67.4479 44.5938 72.5872 49.6269 78.7205 49.6269C82.0435 49.6269 84.5111 48.5316 86.4978 46.4757C88.519 44.4555 89.1357 41.6125 89.1357 39.3185C89.1357 38.5997 89.0678 37.9488 88.9639 37.4006L78.7205 37.5382V37.5382ZM154.847 39.9008C154.264 38.2911 152.415 35.3121 148.714 35.3121C145.012 35.3121 141.964 38.2233 141.964 42.5375C141.964 46.5777 145.012 49.763 149.056 49.763C152.345 49.763 154.23 47.7427 155.017 46.5777L152.586 44.9343C151.763 46.1334 150.667 46.9201 149.056 46.9201C147.446 46.9201 146.316 46.2013 145.595 44.728L155.154 40.722L154.847 39.9008V39.9008ZM145.116 42.3332C145.049 39.5585 147.276 38.1209 148.85 38.1209C150.118 38.1209 151.146 38.7373 151.522 39.6624L145.116 42.3332V42.3332ZM137.339 49.2842H140.492V28.1208H137.339V49.2842V49.2842ZM132.201 36.9218H132.099C131.38 36.065 130.044 35.3121 128.33 35.3121C124.732 35.3121 121.478 38.4974 121.478 42.5375C121.478 46.5777 124.766 49.7292 128.33 49.7292C130.042 49.7292 131.378 48.976 132.099 48.0851H132.201V49.1124C132.201 51.8871 130.727 53.3585 128.364 53.3585C126.445 53.3585 125.245 51.955 124.766 50.79L122.026 51.955C122.813 53.8729 124.904 56.2355 128.364 56.2355C132.063 56.2355 135.182 54.0435 135.182 48.736V35.7568H132.201V36.9218V36.9218ZM128.604 46.8878C126.445 46.8878 124.63 45.0723 124.63 42.5394C124.63 40.0066 126.447 38.1565 128.604 38.1565C130.729 38.1565 132.441 40.0066 132.441 42.5394C132.44 45.0381 130.727 46.8878 128.604 46.8878ZM169.545 28.1211H162.007V49.2842H165.16V41.2702H169.545C173.04 41.2702 176.465 38.7355 176.465 34.6957C176.465 30.6555 173.04 28.1208 169.545 28.1208V28.1211ZM169.647 38.3271H165.192V31.0657H169.647C171.976 31.0657 173.346 33.0177 173.346 34.6953C173.314 36.3391 171.978 38.3271 169.647 38.3271ZM189.039 35.278C186.778 35.278 184.414 36.2712 183.455 38.5315L186.231 39.6965C186.848 38.5315 187.944 38.155 189.109 38.155C190.754 38.155 192.398 39.1479 192.432 40.8937V41.1C191.849 40.7576 190.651 40.2773 189.143 40.2773C186.129 40.2773 183.078 41.9552 183.078 45.0381C183.078 47.8807 185.546 49.6951 188.286 49.6951C190.411 49.6951 191.575 48.736 192.294 47.6066H192.396V49.2504H195.445V41.1337C195.411 37.4017 192.636 35.2776 189.039 35.2776V35.278ZM188.663 46.8537C187.635 46.8537 186.195 46.3392 186.195 45.0738C186.195 43.4299 187.976 42.8135 189.518 42.8135C190.888 42.8135 191.539 43.1217 192.396 43.5323C192.156 45.4843 190.478 46.8537 188.663 46.8537V46.8537ZM206.443 35.7587L202.846 44.9017H202.743L199.01 35.7583H195.619L201.237 48.5654L198.05 55.7229H201.339L209.937 35.7583H206.443L206.443 35.7587ZM178.213 49.2842H181.366V28.1208H178.213V49.2842Z" fill="white"/>
<path d="M73.6432 21.4552C72.6912 21.4552 71.8138 21.2287 71.0111 20.7758C70.2084 20.3228 69.5691 19.7034 69.0931 18.9176C68.6264 18.1226 68.3931 17.2398 68.3931 16.2691C68.3931 15.2984 68.6264 14.4202 69.0931 13.6344C69.5691 12.8394 70.2084 12.2154 71.0111 11.7624C71.8138 11.3094 72.6912 11.0829 73.6432 11.0829C74.3992 11.0829 75.1039 11.217 75.7572 11.4851C76.4106 11.7532 76.9566 12.1276 77.3953 12.6083L76.3032 13.6899C75.9766 13.3293 75.5846 13.052 75.1272 12.8579C74.6792 12.6637 74.1799 12.5667 73.6292 12.5667C72.9852 12.5667 72.3832 12.7192 71.8231 13.0243C71.2631 13.3293 70.8151 13.7638 70.4791 14.3277C70.1431 14.8917 69.9751 15.5388 69.9751 16.2691C69.9751 16.9994 70.1431 17.6465 70.4791 18.2104C70.8151 18.7743 71.2631 19.2088 71.8231 19.5139C72.3832 19.819 72.9898 19.9715 73.6432 19.9715C74.2405 19.9715 74.7399 19.8837 75.1412 19.708C75.5426 19.5324 75.9019 19.2966 76.2192 19.0008C76.4246 18.7974 76.5973 18.5432 76.7373 18.2382C76.8866 17.9331 76.9846 17.6003 77.0313 17.2398H73.6292V15.8531H78.5153C78.562 16.1119 78.5853 16.38 78.5853 16.6574C78.5853 17.286 78.4873 17.8915 78.2913 18.4739C78.0953 19.047 77.7826 19.5462 77.3533 19.9715C76.4106 20.9606 75.1739 21.4552 73.6432 21.4552Z" fill="white"/>
<path d="M80.0454 11.3048H86.1355V12.7885H81.6134V15.5341H85.6875V17.004H81.6134V19.7496H86.1355V21.2334H80.0454V11.3048Z" fill="white"/>
<path d="M89.7647 12.7885H86.9646V11.3048H94.1328V12.7885H91.3327V21.2334H89.7647V12.7885Z" fill="white"/>
<path d="M98.2321 11.3048H99.8001V21.2334H98.2321V11.3048Z" fill="white"/>
<path d="M103.768 12.7885H100.968V11.3048H108.136V12.7885H105.336V21.2334H103.768V12.7885Z" fill="white"/>
<path d="M116.652 21.4552C115.681 21.4552 114.799 21.2287 114.006 20.7758C113.212 20.3135 112.587 19.6849 112.13 18.8899C111.682 18.0949 111.458 17.2213 111.458 16.2691C111.458 15.3169 111.682 14.4479 112.13 13.6621C112.587 12.8671 113.212 12.2385 114.006 11.7763C114.799 11.3141 115.681 11.0829 116.652 11.0829C117.623 11.0829 118.5 11.3141 119.284 11.7763C120.077 12.2385 120.703 12.8671 121.16 13.6621C121.617 14.4479 121.846 15.3169 121.846 16.2691C121.846 17.2213 121.617 18.0949 121.16 18.8899C120.712 19.6849 120.091 20.3135 119.298 20.7758C118.505 21.2287 117.623 21.4552 116.652 21.4552ZM116.652 19.9715C117.315 19.9715 117.921 19.8143 118.472 19.5C119.023 19.1857 119.457 18.7512 119.774 18.1966C120.091 17.6326 120.25 16.9902 120.25 16.2691C120.25 15.548 120.091 14.9101 119.774 14.3555C119.457 13.7916 119.023 13.3525 118.472 13.0381C117.921 12.7238 117.315 12.5667 116.652 12.5667C115.989 12.5667 115.382 12.7238 114.832 13.0381C114.281 13.3525 113.842 13.7916 113.516 14.3555C113.198 14.9101 113.04 15.548 113.04 16.2691C113.04 16.9902 113.198 17.6326 113.516 18.1966C113.842 18.7512 114.281 19.1857 114.832 19.5C115.382 19.8143 115.989 19.9715 116.652 19.9715Z" fill="white"/>
<path d="M123.288 11.3048H125.15L129.63 18.5294H129.714L129.63 16.6158V11.3048H131.184V21.2334H129.546L124.842 13.6344H124.758L124.842 15.548V21.2334H123.288V11.3048Z" fill="white"/>
</g>
<defs>
<clipPath id="clip0">
<rect width="221.38" height="65" fill="white" transform="translate(0.809998)"/>
</clipPath>
</defs>
</svg>
