<svg width="223" height="74" viewBox="0 0 223 74" fill="none" xmlns="http://www.w3.org/2000/svg">
<g clip-path="url(#clip0)">
<path d="M16.4336 72.3813C15.87 72.3813 15.3199 72.3741 14.7607 72.3615C13.6022 72.3464 12.4464 72.2455 11.3028 72.0597C10.2364 71.8761 9.20343 71.5345 8.23783 71.0461C7.28109 70.5618 6.40846 69.9268 5.65338 69.1654C4.88737 68.413 4.24963 67.5403 3.76544 66.5819C3.27591 65.6173 2.93713 64.5833 2.76089 63.5161C2.57057 62.3693 2.4676 61.2097 2.45287 60.0473C2.44114 59.6572 2.42578 58.3581 2.42578 58.3581V15.6221C2.42578 15.6221 2.44214 14.3429 2.45296 13.9672C2.46707 12.8066 2.56944 11.6488 2.75919 10.5038C2.93575 9.43364 3.2748 8.39671 3.76459 7.42894C4.247 6.47122 4.8812 5.59787 5.6426 4.84273C6.40314 4.08042 7.27856 3.44214 8.23693 2.95116C9.2003 2.4644 10.2314 2.12518 11.2956 1.94487C12.4429 1.75722 13.6027 1.65577 14.7653 1.64136L16.4346 1.61877H206.556L208.246 1.64227C209.398 1.65596 210.547 1.75651 211.684 1.94306C212.759 2.12563 213.8 2.46721 214.775 2.95658C216.695 3.94605 218.257 5.51148 219.243 7.43345C219.725 8.39454 220.058 9.42301 220.233 10.484C220.425 11.6384 220.532 12.8052 220.554 13.9753C220.56 14.4992 220.56 15.062 220.56 15.6221C220.574 16.3158 220.574 16.9761 220.574 17.6419V56.3599C220.574 57.032 220.574 57.6878 220.56 58.349C220.56 58.9506 220.56 59.5018 220.552 60.069C220.531 61.2181 220.425 62.3642 220.236 63.4979C220.064 64.5729 219.727 65.6149 219.237 66.5874C218.75 67.5354 218.115 68.4006 217.358 69.151C216.603 69.9165 215.728 70.5552 214.769 71.0426C213.798 71.5347 212.757 71.8776 211.684 72.0597C210.54 72.2465 209.384 72.3474 208.226 72.3615C207.684 72.3741 207.116 72.3813 206.565 72.3813L204.56 72.385L16.4336 72.3813Z" fill="black"/>
<path d="M46.6333 37.5563C46.6532 36.0122 47.0633 34.4982 47.8256 33.1552C48.5878 31.8121 49.6774 30.6838 50.9929 29.875C50.1572 28.6814 49.0547 27.6992 47.773 27.0063C46.4912 26.3134 45.0656 25.9288 43.6093 25.8833C40.5027 25.5572 37.491 27.7422 35.9079 27.7422C34.2942 27.7422 31.8568 25.9156 29.2322 25.9697C27.5345 26.0245 25.8799 26.5182 24.4298 27.4026C22.9796 28.287 21.7832 29.532 20.9573 31.0162C17.3794 37.2108 20.0482 46.3147 23.4755 51.322C25.1902 53.7739 27.1943 56.5127 29.8166 56.4156C32.3827 56.3091 33.341 54.7793 36.4385 54.7793C39.5072 54.7793 40.4064 56.4156 43.0818 56.3538C45.8353 56.3091 47.5702 53.891 49.2248 51.4159C50.4568 49.6688 51.4049 47.7379 52.0339 45.6948C50.4342 45.0182 49.069 43.8856 48.1086 42.4384C47.1482 40.9911 46.6351 39.2932 46.6333 37.5563Z" fill="white"/>
<path d="M41.5798 22.5902C43.0811 20.7879 43.8208 18.4713 43.6417 16.1325C41.348 16.3734 39.2292 17.4696 37.7076 19.2028C36.9637 20.0495 36.3939 21.0345 36.0308 22.1015C35.6678 23.1685 35.5186 24.2966 35.5918 25.4214C36.739 25.4332 37.874 25.1845 38.9112 24.6941C39.9485 24.2037 40.8609 23.4843 41.5798 22.5902Z" fill="white"/>
<path d="M79.07 50.2084H70.3132L68.2103 56.4178H64.5012L72.7955 33.4445H76.6491L84.9434 56.4178H81.1711L79.07 50.2084ZM71.2201 47.343H78.1613L74.7395 37.2656H74.6438L71.2201 47.343Z" fill="white"/>
<path d="M102.856 48.044C102.856 53.2489 100.07 56.593 95.8664 56.593C94.8015 56.6487 93.7423 56.4034 92.8103 55.8851C91.8783 55.3669 91.1111 54.5966 90.5965 53.6626H90.5169V61.9587H87.0789V39.6684H90.4067V42.4542H90.47C91.0082 41.5247 91.7884 40.7584 92.7276 40.237C93.6667 39.7156 94.7296 39.4585 95.8032 39.4931C100.054 39.4932 102.856 42.8535 102.856 48.044ZM99.3225 48.044C99.3225 44.6529 97.5701 42.4235 94.8962 42.4235C92.2694 42.4235 90.5025 44.6999 90.5025 48.044C90.5025 51.4188 92.2694 53.6789 94.8962 53.6789C97.5701 53.6789 99.3225 51.4658 99.3225 48.044Z" fill="white"/>
<path d="M121.291 48.044C121.291 53.2489 118.505 56.593 114.301 56.593C113.236 56.6487 112.177 56.4034 111.245 55.8851C110.313 55.3669 109.546 54.5966 109.031 53.6626H108.952V61.9587H105.514V39.6684H108.841V42.4542H108.905C109.443 41.5247 110.223 40.7584 111.162 40.237C112.101 39.7156 113.164 39.4585 114.238 39.4931C118.489 39.4931 121.291 42.8535 121.291 48.044ZM117.757 48.044C117.757 44.6529 116.005 42.4235 113.331 42.4235C110.704 42.4235 108.937 44.6999 108.937 48.044C108.937 51.4188 110.704 53.6789 113.331 53.6789C116.005 53.6789 117.757 51.4657 117.757 48.044H117.757Z" fill="white"/>
<path d="M133.475 50.0168C133.73 52.295 135.943 53.7908 138.967 53.7908C141.865 53.7908 143.95 52.2949 143.95 50.2408C143.95 48.4576 142.693 47.3899 139.715 46.6582L136.738 45.941C132.52 44.922 130.561 42.9492 130.561 39.7478C130.561 35.784 134.015 33.0614 138.92 33.0614C143.775 33.0614 147.103 35.784 147.215 39.7478H143.744C143.536 37.4552 141.641 36.0713 138.872 36.0713C136.102 36.0713 134.207 37.4714 134.207 39.5093C134.207 41.1335 135.417 42.0892 138.378 42.8208L140.909 43.4423C145.623 44.557 147.581 46.4504 147.581 49.8107C147.581 54.1087 144.158 56.8006 138.713 56.8006C133.618 56.8006 130.178 54.1719 129.956 50.0166L133.475 50.0168Z" fill="white"/>
<path d="M155.001 35.7047V39.6684H158.186V42.391H155.001V51.6248C155.001 53.0592 155.639 53.7277 157.039 53.7277C157.417 53.7211 157.795 53.6946 158.17 53.6481V56.3545C157.541 56.4721 156.901 56.5254 156.26 56.5135C152.869 56.5135 151.547 55.2398 151.547 51.9915V42.391H149.112V39.6684H151.547V35.7047H155.001Z" fill="white"/>
<path d="M160.031 48.044C160.031 42.774 163.135 39.4625 167.975 39.4625C172.831 39.4625 175.92 42.774 175.92 48.044C175.92 53.3284 172.847 56.6255 167.975 56.6255C163.104 56.6255 160.031 53.3284 160.031 48.044ZM172.417 48.044C172.417 44.4289 170.761 42.2953 167.975 42.2953C165.189 42.2953 163.534 44.4452 163.534 48.044C163.534 51.6735 165.189 53.7909 167.975 53.7909C170.761 53.7909 172.417 51.6735 172.417 48.044H172.417Z" fill="white"/>
<path d="M178.755 39.6684H182.034V42.5193H182.114C182.335 41.6289 182.857 40.842 183.591 40.2909C184.324 39.7398 185.225 39.4581 186.142 39.4931C186.539 39.4918 186.934 39.5348 187.32 39.6214V42.8372C186.82 42.6844 186.298 42.6142 185.776 42.6295C185.276 42.6092 184.778 42.6973 184.316 42.8876C183.854 43.078 183.438 43.3661 183.098 43.7322C182.758 44.0983 182.5 44.5337 182.344 45.0085C182.188 45.4834 182.136 45.9864 182.193 46.483V56.4178H178.755L178.755 39.6684Z" fill="white"/>
<path d="M203.172 51.4983C202.709 54.5389 199.748 56.6255 195.96 56.6255C191.087 56.6255 188.063 53.3609 188.063 48.1235C188.063 42.8698 191.103 39.4625 195.815 39.4625C200.449 39.4625 203.363 42.6458 203.363 47.7242V48.9022H191.533V49.1099C191.479 49.7263 191.556 50.3473 191.76 50.9316C191.964 51.5159 192.289 52.0502 192.716 52.4989C193.142 52.9476 193.658 53.3005 194.232 53.5342C194.805 53.7678 195.421 53.8769 196.039 53.8541C196.852 53.9303 197.667 53.7421 198.364 53.3176C199.061 52.8932 199.602 52.2551 199.907 51.4983L203.172 51.4983ZM191.55 46.4993H199.923C199.954 45.9451 199.87 45.3904 199.677 44.8702C199.483 44.3499 199.184 43.8754 198.798 43.4762C198.412 43.077 197.948 42.7619 197.435 42.5506C196.922 42.3393 196.37 42.2364 195.815 42.2483C195.255 42.245 194.7 42.3525 194.182 42.5648C193.664 42.7771 193.193 43.0899 192.797 43.4851C192.4 43.8803 192.086 44.3501 191.872 44.8675C191.658 45.3848 191.548 45.9395 191.55 46.4993V46.4993Z" fill="white"/>
<path d="M70.7892 16.1524C71.51 16.1006 72.2333 16.2095 72.9069 16.4712C73.5805 16.7328 74.1876 17.1407 74.6845 17.6654C75.1814 18.1901 75.5556 18.8186 75.7802 19.5054C76.0048 20.1923 76.0742 20.9204 75.9833 21.6373C75.9833 25.1639 74.0773 27.191 70.7892 27.191H66.8019V16.1524H70.7892ZM68.5164 25.6299H70.5977C71.1127 25.6607 71.6282 25.5762 72.1065 25.3827C72.5848 25.1892 73.0139 24.8914 73.3626 24.5111C73.7113 24.1308 73.9708 23.6776 74.1223 23.1843C74.2737 22.6911 74.3133 22.1703 74.2381 21.6598C74.3078 21.1514 74.2642 20.6338 74.1105 20.1442C73.9567 19.6545 73.6965 19.205 73.3486 18.8277C73.0007 18.4504 72.5736 18.1548 72.0981 17.962C71.6225 17.7691 71.1101 17.6839 70.5977 17.7123H68.5164V25.6299Z" fill="white"/>
<path d="M77.92 23.0221C77.8676 22.4746 77.9302 21.9223 78.1038 21.4004C78.2774 20.8786 78.5582 20.3988 78.9281 19.9919C79.2979 19.5849 79.7488 19.2597 80.2517 19.0372C80.7547 18.8147 81.2985 18.6998 81.8485 18.6998C82.3984 18.6998 82.9423 18.8147 83.4452 19.0372C83.9482 19.2597 84.399 19.5849 84.7689 19.9919C85.1388 20.3988 85.4196 20.8786 85.5932 21.4004C85.7668 21.9223 85.8294 22.4746 85.777 23.0221C85.8304 23.5701 85.7685 24.1232 85.5954 24.6459C85.4222 25.1685 85.1416 25.6492 84.7717 26.057C84.4017 26.4647 83.9505 26.7906 83.447 27.0136C82.9436 27.2366 82.3991 27.3518 81.8485 27.3518C81.2979 27.3518 80.7534 27.2366 80.2499 27.0136C79.7465 26.7906 79.2953 26.4647 78.9253 26.057C78.5553 25.6492 78.2748 25.1685 78.1016 24.6459C77.9285 24.1232 77.8666 23.5701 77.92 23.0221ZM84.086 23.0221C84.086 21.2163 83.2748 20.1604 81.8512 20.1604C80.4221 20.1604 79.6182 21.2163 79.6182 23.0221C79.6182 24.8423 80.4222 25.8901 81.8512 25.8901C83.2748 25.8901 84.086 24.835 84.086 23.0221H84.086Z" fill="white"/>
<path d="M96.2213 27.1908H94.5158L92.7941 21.0555H92.664L90.9495 27.1908H89.2603L86.9641 18.8604H88.6316L90.1239 25.217H90.2467L91.9594 18.8604H93.5366L95.2493 25.217H95.3794L96.8644 18.8604H98.5085L96.2213 27.1908Z" fill="white"/>
<path d="M100.44 18.8605H102.022V20.1838H102.145C102.354 19.7085 102.705 19.3101 103.151 19.044C103.596 18.778 104.114 18.6576 104.631 18.6997C105.037 18.6692 105.444 18.7303 105.822 18.8785C106.201 19.0267 106.541 19.2581 106.818 19.5557C107.095 19.8532 107.301 20.2093 107.422 20.5974C107.542 20.9856 107.574 21.3959 107.515 21.798V27.1908H105.871V22.2109C105.871 20.8722 105.289 20.2064 104.073 20.2064C103.798 20.1936 103.523 20.2404 103.268 20.3437C103.012 20.447 102.782 20.6043 102.593 20.8048C102.404 21.0053 102.261 21.2443 102.173 21.5054C102.085 21.7665 102.055 22.0435 102.084 22.3175V27.1909H100.44L100.44 18.8605Z" fill="white"/>
<path d="M110.134 15.6085H111.778V27.1908H110.134V15.6085Z" fill="white"/>
<path d="M114.064 23.022C114.011 22.4746 114.074 21.9222 114.248 21.4003C114.421 20.8785 114.702 20.3987 115.072 19.9917C115.442 19.5847 115.893 19.2596 116.396 19.037C116.899 18.8145 117.443 18.6996 117.993 18.6996C118.543 18.6996 119.087 18.8145 119.59 19.037C120.093 19.2596 120.543 19.5847 120.913 19.9917C121.283 20.3987 121.564 20.8785 121.738 21.4003C121.911 21.9222 121.974 22.4746 121.922 23.022C121.975 23.5701 121.913 24.1232 121.74 24.6459C121.567 25.1685 121.286 25.6492 120.916 26.0569C120.546 26.4647 120.095 26.7905 119.591 27.0135C119.088 27.2365 118.543 27.3517 117.993 27.3517C117.442 27.3517 116.898 27.2365 116.394 27.0135C115.891 26.7905 115.439 26.4647 115.069 26.0569C114.699 25.6492 114.419 25.1685 114.246 24.6459C114.072 24.1232 114.01 23.5701 114.064 23.022ZM120.23 23.022C120.23 21.2163 119.419 20.1603 117.995 20.1603C116.566 20.1603 115.762 21.2163 115.762 23.0221C115.762 24.8423 116.566 25.8901 117.995 25.8901C119.419 25.8901 120.23 24.835 120.23 23.022H120.23Z" fill="white"/>
<path d="M123.652 24.835C123.652 23.3355 124.769 22.4711 126.751 22.3482L129.007 22.2181V21.4991C129.007 20.6192 128.426 20.1224 127.302 20.1224C126.384 20.1224 125.748 20.4594 125.566 21.0483H123.974C124.142 19.6175 125.488 18.6997 127.378 18.6997C129.466 18.6997 130.644 19.7394 130.644 21.4991V27.1909H129.061V26.0202H128.931C128.667 26.4401 128.297 26.7825 127.857 27.0123C127.417 27.2421 126.925 27.3511 126.429 27.3282C126.079 27.3645 125.726 27.3272 125.392 27.2186C125.057 27.11 124.749 26.9326 124.488 26.6977C124.226 26.4628 124.017 26.1757 123.873 25.8549C123.729 25.534 123.654 25.1866 123.652 24.835ZM129.007 24.1232V23.4268L126.973 23.5568C125.826 23.6336 125.305 24.0239 125.305 24.7583C125.305 25.508 125.956 25.9443 126.85 25.9443C127.112 25.9708 127.377 25.9444 127.629 25.8665C127.88 25.7886 128.114 25.661 128.315 25.491C128.516 25.3211 128.681 25.1125 128.8 24.8775C128.919 24.6425 128.989 24.386 129.007 24.1232Z" fill="white"/>
<path d="M132.805 23.022C132.805 20.3898 134.158 18.7222 136.263 18.7222C136.783 18.6982 137.3 18.8229 137.752 19.0817C138.205 19.3405 138.574 19.7228 138.817 20.1837H138.94V15.6085H140.584V27.1908H139.009V25.8747H138.879C138.617 26.3325 138.235 26.71 137.773 26.9662C137.312 27.2224 136.79 27.3475 136.263 27.3281C134.144 27.3282 132.805 25.6606 132.805 23.022ZM134.503 23.022C134.503 24.7889 135.336 25.8521 136.729 25.8521C138.115 25.8521 138.971 24.7736 138.971 23.0293C138.971 21.2931 138.106 20.1992 136.729 20.1992C135.345 20.1992 134.503 21.2696 134.503 23.022H134.503Z" fill="white"/>
<path d="M147.386 23.0221C147.334 22.4746 147.396 21.9223 147.57 21.4004C147.744 20.8786 148.024 20.3988 148.394 19.9919C148.764 19.5849 149.215 19.2597 149.718 19.0372C150.221 18.8147 150.765 18.6998 151.315 18.6998C151.865 18.6998 152.409 18.8147 152.911 19.0372C153.414 19.2597 153.865 19.5849 154.235 19.9919C154.605 20.3988 154.886 20.8786 155.059 21.4004C155.233 21.9223 155.296 22.4746 155.243 23.0221C155.297 23.5701 155.235 24.1232 155.062 24.6459C154.888 25.1685 154.608 25.6492 154.238 26.057C153.868 26.4647 153.417 26.7906 152.913 27.0136C152.41 27.2366 151.865 27.3518 151.315 27.3518C150.764 27.3518 150.22 27.2366 149.716 27.0136C149.213 26.7906 148.762 26.4647 148.392 26.057C148.022 25.6492 147.741 25.1685 147.568 24.6459C147.395 24.1232 147.333 23.5701 147.386 23.0221ZM153.552 23.0221C153.552 21.2163 152.741 20.1604 151.317 20.1604C149.888 20.1604 149.084 21.2163 149.084 23.0221C149.084 24.8423 149.888 25.8901 151.317 25.8901C152.741 25.8901 153.552 24.835 153.552 23.0221Z" fill="white"/>
<path d="M157.449 18.8605H159.032V20.1838H159.155C159.363 19.7085 159.715 19.3101 160.16 19.044C160.606 18.778 161.123 18.6576 161.641 18.6997C162.046 18.6692 162.453 18.7303 162.831 18.8785C163.21 19.0267 163.55 19.2581 163.827 19.5557C164.104 19.8532 164.311 20.2093 164.431 20.5974C164.552 20.9856 164.584 21.3959 164.524 21.798V27.1908H162.88V22.2109C162.88 20.8722 162.298 20.2064 161.082 20.2064C160.807 20.1936 160.532 20.2404 160.277 20.3437C160.022 20.447 159.792 20.6043 159.603 20.8048C159.414 21.0053 159.27 21.2443 159.182 21.5054C159.095 21.7665 159.064 22.0435 159.093 22.3175V27.1909H157.449V18.8605Z" fill="white"/>
<path d="M173.814 16.7864V18.8983H175.619V20.2831H173.814V24.5667C173.814 25.4393 174.173 25.8214 174.992 25.8214C175.201 25.8207 175.411 25.808 175.619 25.7834V27.1529C175.323 27.2057 175.024 27.2338 174.724 27.2369C172.896 27.2369 172.168 26.5937 172.168 24.9876V20.2831H170.845V18.8983H172.168V16.7864H173.814Z" fill="white"/>
<path d="M177.864 15.6085H179.494V20.1991H179.624C179.842 19.7194 180.204 19.3187 180.658 19.0517C181.113 18.7846 181.639 18.6642 182.164 18.7069C182.567 18.6849 182.97 18.7522 183.345 18.904C183.719 19.0558 184.055 19.2883 184.329 19.5849C184.603 19.8815 184.808 20.235 184.93 20.62C185.051 21.0051 185.087 21.4122 185.033 21.8125V27.1908H183.387V22.218C183.387 20.8875 182.767 20.2136 181.606 20.2136C181.323 20.1904 181.039 20.2292 180.773 20.3274C180.507 20.4255 180.266 20.5806 180.066 20.7818C179.866 20.983 179.713 21.2253 179.616 21.492C179.52 21.7586 179.483 22.0431 179.508 22.3255V27.1908H177.864L177.864 15.6085Z" fill="white"/>
<path d="M194.619 24.9416C194.396 25.7029 193.912 26.3615 193.252 26.8021C192.592 27.2427 191.798 27.4372 191.009 27.3517C190.461 27.3661 189.915 27.261 189.411 27.0436C188.907 26.8262 188.456 26.5016 188.09 26.0925C187.724 25.6834 187.451 25.1995 187.291 24.6745C187.13 24.1494 187.086 23.5957 187.161 23.0519C187.088 22.5063 187.133 21.9515 187.293 21.4248C187.453 20.8982 187.724 20.412 188.089 19.9994C188.453 19.5867 188.901 19.2571 189.404 19.0328C189.907 18.8086 190.452 18.695 191.002 18.6997C193.32 18.6997 194.718 20.2833 194.718 22.8992V23.4728H188.836V23.565C188.81 23.8707 188.849 24.1784 188.949 24.4684C189.049 24.7583 189.209 25.0242 189.417 25.2489C189.626 25.4736 189.88 25.6522 190.162 25.7731C190.444 25.8941 190.748 25.9549 191.054 25.9515C191.448 25.9987 191.846 25.9279 192.199 25.748C192.552 25.5682 192.843 25.2875 193.036 24.9415L194.619 24.9416ZM188.836 22.2569H193.044C193.064 21.9773 193.026 21.6965 192.932 21.4325C192.838 21.1685 192.689 20.9271 192.496 20.7238C192.303 20.5206 192.07 20.36 191.811 20.2524C191.552 20.1448 191.273 20.0925 190.993 20.0989C190.709 20.0953 190.427 20.1487 190.163 20.2559C189.9 20.3631 189.66 20.522 189.459 20.7231C189.258 20.9242 189.1 21.1635 188.993 21.427C188.886 21.6904 188.832 21.9726 188.836 22.2569H188.836Z" fill="white"/>
</g>
<defs>
<clipPath id="clip0">
<rect width="221.379" height="74" fill="white" transform="translate(0.81073)"/>
</clipPath>
</defs>
</svg>
