<svg viewBox="0 0 120 40" fill="none" xmlns="http://www.w3.org/2000/svg">
<path d="M8.44484 39.1251C8.14016 39.1251 7.84284 39.1212 7.54055 39.1144C6.91433 39.1063 6.28957 39.0518 5.67141 38.9513C5.095 38.8521 4.53661 38.6674 4.01467 38.4034C3.49751 38.1417 3.02582 37.7984 2.61767 37.3868C2.20361 36.9801 1.85888 36.5084 1.59716 35.9903C1.33255 35.4689 1.14942 34.91 1.05416 34.3331C0.951281 33.7133 0.895621 33.0865 0.887656 32.4581C0.881316 32.2472 0.873016 31.545 0.873016 31.545V8.44448C0.873016 8.44448 0.881856 7.75307 0.887706 7.54994C0.895332 6.92262 0.950669 6.29679 1.05324 5.67787C1.14868 5.09939 1.33194 4.53889 1.5967 4.01577C1.85746 3.49808 2.20027 3.026 2.61184 2.61782C3.02294 2.20576 3.49614 1.86074 4.01418 1.59535C4.53492 1.33223 5.09225 1.14887 5.6675 1.05141C6.28769 0.949973 6.91462 0.895133 7.54301 0.887347L8.44533 0.875137H111.214L112.127 0.887837C112.75 0.895237 113.371 0.949587 113.985 1.05043C114.566 1.14911 115.13 1.33375 115.656 1.59828C116.694 2.13312 117.539 2.9793 118.071 4.01821C118.332 4.53772 118.512 5.09364 118.606 5.66713C118.71 6.29113 118.768 6.92188 118.78 7.55434C118.783 7.83754 118.783 8.14174 118.783 8.44448C118.791 8.81948 118.791 9.17641 118.791 9.53627V30.4649C118.791 30.8282 118.791 31.1827 118.783 31.5401C118.783 31.8653 118.783 32.1632 118.779 32.4698C118.768 33.091 118.71 33.7105 118.608 34.3233C118.515 34.9044 118.333 35.4676 118.068 35.9933C117.805 36.5058 117.462 36.9734 117.053 37.379C116.644 37.7928 116.172 38.1381 115.653 38.4015C115.128 38.6675 114.566 38.8529 113.985 38.9513C113.367 39.0523 112.742 39.1068 112.116 39.1144C111.823 39.1212 111.517 39.1251 111.219 39.1251L110.135 39.1271L8.44484 39.1251Z" fill="black"/>
<path d="M24.7689 20.3008C24.7796 19.4661 25.0013 18.6478 25.4134 17.9218C25.8254 17.1959 26.4143 16.5859 27.1254 16.1487C26.6737 15.5036 26.0777 14.9726 25.3849 14.5981C24.6921 14.2235 23.9215 14.0157 23.1343 13.9911C21.455 13.8148 19.8271 14.9959 18.9714 14.9959C18.0991 14.9959 16.7816 14.0086 15.3629 14.0378C14.4452 14.0674 13.5509 14.3343 12.767 14.8123C11.9831 15.2904 11.3364 15.9633 10.89 16.7656C8.95595 20.114 10.3985 25.0351 12.2511 27.7417C13.178 29.0671 14.2613 30.5475 15.6788 30.495C17.0658 30.4375 17.5839 29.6105 19.2582 29.6105C20.9169 29.6105 21.403 30.495 22.8492 30.4616C24.3376 30.4375 25.2753 29.1304 26.1697 27.7925C26.8357 26.8481 27.3481 25.8044 27.6881 24.7C26.8234 24.3342 26.0855 23.7221 25.5664 22.9398C25.0472 22.1575 24.7699 21.2397 24.7689 20.3008V20.3008Z" fill="white"/>
<path d="M22.0372 12.211C22.8488 11.2368 23.2486 9.98463 23.1518 8.7204C21.9119 8.85062 20.7667 9.44318 19.9442 10.38C19.542 10.8377 19.234 11.3701 19.0378 11.9469C18.8415 12.5236 18.7609 13.1334 18.8005 13.7414C19.4206 13.7478 20.0341 13.6134 20.5948 13.3483C21.1554 13.0832 21.6486 12.6943 22.0372 12.211Z" fill="white"/>
<path d="M42.3022 27.1398H37.5688L36.4321 30.4962H34.4272L38.9106 18.0782H40.9936L45.477 30.4962H43.438L42.3022 27.1398ZM38.0591 25.591H41.8111L39.9615 20.1437H39.9097L38.0591 25.591Z" fill="white"/>
<path d="M55.1597 25.9699C55.1597 28.7833 53.6538 30.591 51.3813 30.591C50.8057 30.6211 50.2332 30.4885 49.7294 30.2083C49.2256 29.9282 48.8109 29.5118 48.5327 29.007H48.4897V33.4913H46.6313V21.4425H48.4302V22.9484H48.4644C48.7553 22.4459 49.177 22.0317 49.6847 21.7499C50.1923 21.468 50.7668 21.3291 51.3472 21.3478C53.645 21.3478 55.1597 23.1642 55.1597 25.9699ZM53.2495 25.9699C53.2495 24.1369 52.3022 22.9318 50.8569 22.9318C49.437 22.9318 48.4819 24.1622 48.4819 25.9699C48.4819 27.7941 49.437 29.0158 50.8569 29.0158C52.3022 29.0158 53.2495 27.8195 53.2495 25.9699Z" fill="white"/>
<path d="M65.1245 25.9699C65.1245 28.7833 63.6187 30.5909 61.3462 30.5909C60.7705 30.6211 60.198 30.4885 59.6942 30.2083C59.1905 29.9282 58.7757 29.5118 58.4976 29.0069H58.4546V33.4913H56.5962V21.4425H58.395V22.9484H58.4292C58.7201 22.4459 59.1418 22.0317 59.6495 21.7499C60.1571 21.468 60.7317 21.3291 61.312 21.3478C63.6099 21.3478 65.1245 23.1642 65.1245 25.9699ZM63.2144 25.9699C63.2144 24.1369 62.2671 22.9318 60.8218 22.9318C59.4018 22.9318 58.4468 24.1622 58.4468 25.9699C58.4468 27.7941 59.4018 29.0158 60.8218 29.0158C62.2671 29.0158 63.2144 27.8195 63.2144 25.9699H63.2144Z" fill="white"/>
<path d="M71.7104 27.0363C71.8481 28.2677 73.0444 29.0763 74.6792 29.0763C76.2456 29.0763 77.3726 28.2677 77.3726 27.1573C77.3726 26.1934 76.6929 25.6163 75.0835 25.2208L73.4741 24.8331C71.1939 24.2823 70.1353 23.2159 70.1353 21.4854C70.1353 19.3428 72.0024 17.8712 74.6538 17.8712C77.2778 17.8712 79.0767 19.3428 79.1372 21.4854H77.2612C77.1489 20.2462 76.1245 19.4981 74.6274 19.4981C73.1303 19.4981 72.1059 20.255 72.1059 21.3565C72.1059 22.2345 72.7602 22.7511 74.3608 23.1465L75.729 23.4825C78.2768 24.085 79.3354 25.1085 79.3354 26.9249C79.3354 29.2481 77.4848 30.7032 74.5415 30.7032C71.7876 30.7032 69.9282 29.2823 69.8081 27.0362L71.7104 27.0363Z" fill="white"/>
<path d="M83.3462 19.2999V21.4425H85.0679V22.9142H83.3462V27.9054C83.3462 28.6808 83.6909 29.0421 84.4477 29.0421C84.6521 29.0386 84.8562 29.0242 85.0591 28.9991V30.462C84.7188 30.5256 84.3729 30.5544 84.0268 30.5479C82.1938 30.5479 81.479 29.8595 81.479 28.1036V22.9142H80.1626V21.4425H81.479V19.2999H83.3462Z" fill="white"/>
<path d="M86.065 25.9699C86.065 23.1212 87.7427 21.3312 90.3589 21.3312C92.9839 21.3312 94.6538 23.1212 94.6538 25.9699C94.6538 28.8263 92.9927 30.6085 90.3589 30.6085C87.7261 30.6085 86.065 28.8263 86.065 25.9699ZM92.7603 25.9699C92.7603 24.0158 91.8648 22.8624 90.3589 22.8624C88.853 22.8624 87.9585 24.0246 87.9585 25.9699C87.9585 27.9318 88.853 29.0763 90.3589 29.0763C91.8648 29.0763 92.7602 27.9318 92.7602 25.9699H92.7603Z" fill="white"/>
<path d="M96.186 21.4425H97.9585V22.9835H98.0015C98.1214 22.5022 98.4034 22.0769 98.8 21.779C99.1966 21.4811 99.6836 21.3288 100.179 21.3478C100.393 21.347 100.607 21.3703 100.816 21.4171V23.1554C100.546 23.0728 100.264 23.0348 99.981 23.0431C99.711 23.0321 99.4418 23.0797 99.192 23.1826C98.9421 23.2855 98.7175 23.4412 98.5335 23.6391C98.3496 23.837 98.2106 24.0724 98.1262 24.3291C98.0417 24.5857 98.0139 24.8576 98.0444 25.1261V30.4962H96.186L96.186 21.4425Z" fill="white"/>
<path d="M109.384 27.837C109.134 29.4806 107.534 30.6085 105.486 30.6085C102.852 30.6085 101.217 28.8439 101.217 26.0128C101.217 23.173 102.861 21.3312 105.408 21.3312C107.913 21.3312 109.488 23.0519 109.488 25.797V26.4337H103.093V26.546C103.064 26.8792 103.105 27.2149 103.216 27.5307C103.326 27.8466 103.502 28.1353 103.732 28.3779C103.963 28.6204 104.242 28.8112 104.552 28.9375C104.861 29.0638 105.195 29.1228 105.529 29.1105C105.968 29.1516 106.409 29.0499 106.785 28.8205C107.162 28.591 107.455 28.2461 107.62 27.837L109.384 27.837ZM103.102 25.1349H107.628C107.645 24.8353 107.6 24.5355 107.495 24.2543C107.39 23.9731 107.229 23.7165 107.02 23.5008C106.812 23.285 106.561 23.1147 106.283 23.0004C106.006 22.8862 105.708 22.8306 105.408 22.837C105.105 22.8352 104.805 22.8934 104.525 23.0081C104.245 23.1229 103.99 23.2919 103.776 23.5056C103.562 23.7192 103.392 23.9732 103.276 24.2528C103.16 24.5325 103.101 24.8323 103.102 25.1349V25.1349Z" fill="white"/>
<path d="M37.8262 8.73114C38.2158 8.70318 38.6068 8.76204 38.9709 8.90347C39.335 9.0449 39.6632 9.26538 39.9318 9.54901C40.2004 9.83263 40.4026 10.1723 40.524 10.5436C40.6455 10.9149 40.6829 11.3085 40.6338 11.696C40.6338 13.6022 39.6035 14.698 37.8262 14.698H35.6709V8.73114H37.8262ZM36.5977 13.8541H37.7227C38.0011 13.8708 38.2797 13.8251 38.5382 13.7205C38.7968 13.6159 39.0287 13.455 39.2172 13.2494C39.4057 13.0438 39.546 12.7988 39.6279 12.5322C39.7097 12.2656 39.7311 11.9841 39.6904 11.7081C39.7282 11.4333 39.7046 11.1535 39.6215 10.8889C39.5384 10.6242 39.3977 10.3812 39.2097 10.1773C39.0216 9.97334 38.7908 9.81353 38.5337 9.70929C38.2766 9.60506 37.9997 9.55897 37.7227 9.57435H36.5977V13.8541Z" fill="white"/>
<path d="M41.6807 12.4445C41.6524 12.1486 41.6862 11.85 41.7801 11.5679C41.8739 11.2858 42.0257 11.0265 42.2256 10.8065C42.4256 10.5865 42.6693 10.4108 42.9411 10.2905C43.213 10.1702 43.507 10.1081 43.8042 10.1081C44.1015 10.1081 44.3955 10.1702 44.6673 10.2905C44.9392 10.4108 45.1829 10.5865 45.3828 10.8065C45.5828 11.0265 45.7345 11.2858 45.8284 11.5679C45.9222 11.85 45.9561 12.1486 45.9278 12.4445C45.9566 12.7407 45.9232 13.0397 45.8296 13.3222C45.736 13.6047 45.5843 13.8645 45.3843 14.085C45.1843 14.3054 44.9404 14.4815 44.6683 14.602C44.3962 14.7226 44.1019 14.7848 43.8042 14.7848C43.5066 14.7848 43.2123 14.7226 42.9402 14.602C42.668 14.4815 42.4241 14.3054 42.2241 14.085C42.0242 13.8645 41.8725 13.6047 41.7789 13.3222C41.6853 13.0397 41.6519 12.7407 41.6807 12.4445V12.4445ZM45.0137 12.4445C45.0137 11.4684 44.5752 10.8976 43.8057 10.8976C43.0332 10.8976 42.5987 11.4684 42.5987 12.4445C42.5987 13.4284 43.0333 13.9948 43.8057 13.9948C44.5752 13.9948 45.0137 13.4245 45.0137 12.4445H45.0137Z" fill="white"/>
<path d="M51.5733 14.6979H50.6514L49.7207 11.3815H49.6504L48.7237 14.6979H47.8106L46.5694 10.1949H47.4707L48.2774 13.6309H48.3438L49.2696 10.1949H50.1221L51.0479 13.6309H51.1182L51.9209 10.1949H52.8096L51.5733 14.6979Z" fill="white"/>
<path d="M53.8536 10.195H54.709V10.9103H54.7754C54.8881 10.6534 55.0781 10.438 55.319 10.2942C55.5598 10.1504 55.8396 10.0853 56.1192 10.108C56.3383 10.0916 56.5583 10.1246 56.7629 10.2047C56.9675 10.2848 57.1514 10.4099 57.3011 10.5707C57.4508 10.7316 57.5624 10.924 57.6276 11.1339C57.6928 11.3437 57.7099 11.5655 57.6778 11.7828V14.6978H56.7891V12.006C56.7891 11.2824 56.4746 10.9225 55.8174 10.9225C55.6687 10.9156 55.5202 10.9409 55.3821 10.9967C55.244 11.0526 55.1197 11.1376 55.0176 11.246C54.9154 11.3543 54.838 11.4835 54.7904 11.6247C54.7429 11.7658 54.7265 11.9155 54.7422 12.0636V14.6979H53.8535L53.8536 10.195Z" fill="white"/>
<path d="M59.0938 8.43713H59.9825V14.6979H59.0938V8.43713Z" fill="white"/>
<path d="M61.2178 12.4445C61.1895 12.1485 61.2234 11.85 61.3172 11.5679C61.4111 11.2858 61.5629 11.0264 61.7628 10.8065C61.9628 10.5865 62.2065 10.4107 62.4784 10.2904C62.7503 10.1701 63.0443 10.108 63.3416 10.108C63.6389 10.108 63.9329 10.1701 64.2047 10.2904C64.4766 10.4107 64.7203 10.5865 64.9203 10.8065C65.1203 11.0264 65.272 11.2858 65.3659 11.5679C65.4598 11.85 65.4936 12.1485 65.4653 12.4445C65.4942 12.7407 65.4607 13.0397 65.3671 13.3222C65.2734 13.6047 65.1217 13.8646 64.9217 14.085C64.7217 14.3054 64.4778 14.4815 64.2057 14.602C63.9335 14.7226 63.6392 14.7848 63.3416 14.7848C63.0439 14.7848 62.7496 14.7226 62.4775 14.602C62.2053 14.4815 61.9614 14.3054 61.7614 14.085C61.5614 13.8646 61.4097 13.6047 61.3161 13.3222C61.2225 13.0397 61.189 12.7407 61.2178 12.4445V12.4445ZM64.5508 12.4445C64.5508 11.4684 64.1123 10.8976 63.3428 10.8976C62.5703 10.8976 62.1358 11.4684 62.1358 12.4445C62.1358 13.4284 62.5704 13.9948 63.3428 13.9948C64.1123 13.9948 64.5508 13.4245 64.5508 12.4445H64.5508Z" fill="white"/>
<path d="M66.4009 13.4244C66.4009 12.6139 67.0044 12.1466 68.0757 12.0802L69.2954 12.0099V11.6212C69.2954 11.1456 68.981 10.8771 68.3736 10.8771C67.8775 10.8771 67.5337 11.0592 67.4351 11.3776H66.5747C66.6656 10.6041 67.3931 10.108 68.4146 10.108C69.5435 10.108 70.1802 10.67 70.1802 11.6212V14.6979H69.3247V14.0651H69.2544C69.1117 14.2921 68.9113 14.4771 68.6737 14.6013C68.4361 14.7255 68.1697 14.7845 67.9019 14.7721C67.7129 14.7917 67.5218 14.7716 67.341 14.7129C67.1603 14.6542 66.9938 14.5582 66.8524 14.4313C66.711 14.3043 66.5977 14.1491 66.52 13.9757C66.4422 13.8023 66.4017 13.6145 66.4009 13.4244V13.4244ZM69.2954 13.0397V12.6632L68.1958 12.7335C67.5757 12.775 67.2945 12.986 67.2945 13.3829C67.2945 13.7882 67.646 14.024 68.1295 14.024C68.2711 14.0384 68.4142 14.0241 68.5502 13.982C68.6862 13.9399 68.8123 13.8709 68.9211 13.779C69.0299 13.6872 69.1191 13.5744 69.1834 13.4474C69.2477 13.3204 69.2858 13.1817 69.2954 13.0397V13.0397Z" fill="white"/>
<path d="M71.3482 12.4445C71.3482 11.0216 72.0796 10.1203 73.2173 10.1203C73.4987 10.1073 73.778 10.1747 74.0226 10.3146C74.2671 10.4545 74.4667 10.6611 74.5982 10.9103H74.6646V8.43713H75.5533V14.6979H74.7017V13.9864H74.6314C74.4898 14.2339 74.2832 14.438 74.0339 14.5765C73.7847 14.7149 73.5023 14.7826 73.2173 14.7721C72.0718 14.7721 71.3482 13.8707 71.3482 12.4445ZM72.2662 12.4445C72.2662 13.3996 72.7164 13.9743 73.4693 13.9743C74.2183 13.9743 74.6812 13.3913 74.6812 12.4484C74.6812 11.5099 74.2134 10.9186 73.4693 10.9186C72.7212 10.9186 72.2661 11.4972 72.2661 12.4445H72.2662Z" fill="white"/>
<path d="M79.23 12.4445C79.2017 12.1486 79.2356 11.85 79.3294 11.5679C79.4232 11.2858 79.575 11.0265 79.7749 10.8065C79.9749 10.5865 80.2186 10.4108 80.4904 10.2905C80.7623 10.1702 81.0563 10.1081 81.3536 10.1081C81.6508 10.1081 81.9448 10.1702 82.2167 10.2905C82.4885 10.4108 82.7322 10.5865 82.9322 10.8065C83.1321 11.0265 83.2839 11.2858 83.3777 11.5679C83.4715 11.85 83.5054 12.1486 83.4771 12.4445C83.5059 12.7407 83.4725 13.0397 83.3789 13.3222C83.2853 13.6047 83.1336 13.8645 82.9336 14.085C82.7336 14.3054 82.4897 14.4815 82.2176 14.602C81.9455 14.7226 81.6512 14.7848 81.3536 14.7848C81.0559 14.7848 80.7616 14.7226 80.4895 14.602C80.2173 14.4815 79.9735 14.3054 79.7735 14.085C79.5735 13.8645 79.4218 13.6047 79.3282 13.3222C79.2346 13.0397 79.2012 12.7407 79.23 12.4445V12.4445ZM82.563 12.4445C82.563 11.4684 82.1245 10.8976 81.355 10.8976C80.5826 10.8976 80.148 11.4684 80.148 12.4445C80.148 13.4284 80.5826 13.9948 81.355 13.9948C82.1245 13.9948 82.563 13.4245 82.563 12.4445Z" fill="white"/>
<path d="M84.6695 10.195H85.5249V10.9103H85.5913C85.704 10.6534 85.894 10.438 86.1349 10.2942C86.3757 10.1504 86.6555 10.0853 86.9351 10.108C87.1542 10.0916 87.3742 10.1246 87.5788 10.2047C87.7834 10.2848 87.9673 10.4099 88.117 10.5707C88.2667 10.7316 88.3783 10.924 88.4435 11.1339C88.5087 11.3437 88.5258 11.5655 88.4937 11.7828V14.6978H87.605V12.006C87.605 11.2824 87.2906 10.9225 86.6333 10.9225C86.4846 10.9156 86.3361 10.9409 86.198 10.9967C86.06 11.0526 85.9356 11.1376 85.8335 11.246C85.7314 11.3543 85.6539 11.4835 85.6064 11.6247C85.5588 11.7658 85.5424 11.9155 85.5581 12.0636V14.6979H84.6695V10.195Z" fill="white"/>
<path d="M93.5152 9.07387V10.2155H94.4908V10.964H93.5152V13.2794C93.5152 13.7511 93.7095 13.9577 94.1519 13.9577C94.2651 13.9573 94.3783 13.9504 94.4908 13.9371V14.6774C94.3312 14.7059 94.1695 14.7211 94.0074 14.7228C93.0191 14.7228 92.6255 14.3751 92.6255 13.507V10.964H91.9107V10.2154H92.6255V9.07387H93.5152Z" fill="white"/>
<path d="M95.7046 8.43713H96.5855V10.9186H96.6558C96.7739 10.6593 96.9691 10.4427 97.2148 10.2983C97.4605 10.154 97.7448 10.0889 98.0288 10.1119C98.2467 10.1001 98.4646 10.1365 98.6669 10.2185C98.8692 10.3006 99.0509 10.4262 99.199 10.5866C99.3471 10.7469 99.458 10.938 99.5238 11.1461C99.5896 11.3542 99.6086 11.5743 99.5796 11.7907V14.6979H98.69V12.0099C98.69 11.2906 98.355 10.9264 97.7271 10.9264C97.5744 10.9139 97.4207 10.9349 97.277 10.9879C97.1332 11.041 97.0027 11.1248 96.8948 11.2335C96.7868 11.3423 96.7038 11.4733 96.6518 11.6174C96.5997 11.7616 96.5798 11.9153 96.5933 12.068V14.6979H95.7047L95.7046 8.43713Z" fill="white"/>
<path d="M104.761 13.4821C104.641 13.8936 104.379 14.2496 104.022 14.4877C103.666 14.7259 103.236 14.831 102.81 14.7848C102.513 14.7926 102.219 14.7358 101.946 14.6183C101.674 14.5008 101.43 14.3253 101.232 14.1042C101.034 13.8831 100.887 13.6215 100.8 13.3377C100.713 13.0539 100.689 12.7546 100.73 12.4606C100.691 12.1657 100.715 11.8658 100.801 11.5811C100.888 11.2964 101.034 11.0337 101.231 10.8106C101.428 10.5875 101.671 10.4093 101.942 10.2881C102.214 10.1669 102.509 10.1055 102.806 10.108C104.059 10.108 104.815 10.964 104.815 12.378V12.6881H101.635V12.7379C101.621 12.9032 101.642 13.0695 101.696 13.2263C101.75 13.383 101.837 13.5267 101.95 13.6482C102.062 13.7696 102.2 13.8662 102.352 13.9316C102.504 13.9969 102.669 14.0298 102.835 14.0279C103.047 14.0535 103.262 14.0152 103.453 13.918C103.644 13.8208 103.802 13.669 103.906 13.482L104.761 13.4821ZM101.635 12.0309H103.91C103.921 11.8798 103.9 11.728 103.849 11.5853C103.798 11.4425 103.718 11.3121 103.614 11.2022C103.509 11.0923 103.383 11.0055 103.243 10.9474C103.103 10.8892 102.953 10.8609 102.801 10.8644C102.648 10.8625 102.495 10.8913 102.353 10.9493C102.21 11.0072 102.081 11.0931 101.972 11.2018C101.864 11.3105 101.778 11.4399 101.72 11.5823C101.662 11.7247 101.633 11.8772 101.635 12.0309H101.635Z" fill="white"/>
</svg>
