<svg width="158" height="23" viewBox="0 0 158 23" fill="none" xmlns="http://www.w3.org/2000/svg">
<g clip-path="url(#clip0)">
<path d="M0 15.7569V15.3179H4.94565V15.6298C4.90848 16.056 4.96551 16.4852 5.11254 16.886C5.25957 17.2868 5.49288 17.6489 5.79533 17.9458C6.09777 18.2428 6.46168 18.467 6.86033 18.6019C7.25899 18.7369 7.68226 18.7792 8.09907 18.7258C8.62826 18.7808 9.16237 18.6935 9.64806 18.4726C10.1337 18.2516 10.554 17.9047 10.8668 17.4666C11.0549 17.1123 11.1487 16.7141 11.1391 16.3114C11.1501 15.9671 11.076 15.6255 10.9235 15.3179C10.6233 14.9081 10.2421 14.5668 9.80444 14.3162C9.36682 14.0655 8.88249 13.9109 8.38266 13.8624L5.67162 13.3772C4.71318 13.2492 3.79396 12.9087 2.97868 12.3798C2.1634 11.8509 1.47188 11.1464 0.952832 10.3159C0.406926 9.31349 0.132868 8.18113 0.158805 7.03516C0.1292 5.82284 0.423233 4.62507 1.00955 3.56956C2.26865 1.31693 4.82088 0 8.22385 0C13.2262 0 16.3229 2.5992 16.3229 7.21999V7.65897H11.3432V7.34706C11.3793 6.92265 11.3212 6.49541 11.1733 6.09694C11.0253 5.69848 10.7913 5.33898 10.4885 5.04505C10.1858 4.75112 9.82197 4.53028 9.42408 4.39885C9.02618 4.26743 8.60436 4.22879 8.18982 4.28579C7.66765 4.22327 7.13861 4.30631 6.65915 4.52604C6.17969 4.74576 5.76781 5.09394 5.46744 5.5334C5.25243 5.87833 5.14196 6.28012 5.14983 6.6886C5.14166 7.02524 5.21571 7.35868 5.36535 7.65897C5.67298 8.06238 6.06205 8.39386 6.50626 8.63101C6.95047 8.86817 7.43948 9.00547 7.94027 9.03365L10.5832 9.56504C11.5582 9.70034 12.4922 10.0518 13.3193 10.5947C14.1464 11.1377 14.8464 11.8587 15.3701 12.7072C15.9099 13.7237 16.176 14.8675 16.1414 16.0226C16.1633 17.2312 15.8781 18.425 15.3134 19.4882C14.0202 21.7062 11.4794 22.9538 8.07639 22.9538C3.07402 23 0 20.3777 0 15.7569Z" fill="white"/>
<path d="M29.3676 10.8473H21.9378V16.9699C21.9378 18.1944 22.4596 18.7489 23.2309 18.7489C24.0023 18.7489 24.5808 18.1944 24.5808 16.7504V14.4978H29.3676V16.8775C29.3676 20.5972 26.9402 22.9076 23.1629 22.9076C19.2041 22.9076 17.185 20.8398 17.185 17.0623V4.62081L21.9378 2.47214V6.9312H29.3676V10.8473Z" fill="white"/>
<path d="M45.1688 17.6283C44.647 20.782 41.7658 22.9076 37.9885 22.9076C35.0393 22.9076 32.8273 21.8794 31.5115 19.9041C30.5212 18.38 30.0253 16.578 30.0936 14.7519C30.0463 12.8875 30.5609 11.0532 31.5682 9.49571C32.2802 8.51256 33.2183 7.72244 34.3002 7.19473C35.382 6.66702 36.5745 6.41785 37.773 6.46909C42.4918 6.46909 45.1348 9.49571 45.1348 14.6941V15.9417H34.6649C34.7349 16.6978 34.9798 17.4262 35.3796 18.0673C35.6661 18.4615 36.0468 18.7746 36.4855 18.9768C36.9243 19.179 37.4065 19.2636 37.8864 19.2225C38.4196 19.2735 38.9544 19.1453 39.4092 18.8574C39.864 18.5695 40.2136 18.1378 40.4046 17.6283H45.1688ZM35.3455 11.3094C35.014 11.8062 34.804 12.3766 34.733 12.9729H40.5975C40.6377 12.5835 40.5926 12.1899 40.4654 11.8204C40.3382 11.451 40.1321 11.1149 39.8619 10.8364C39.5917 10.5579 39.2642 10.344 38.9029 10.21C38.5417 10.076 38.1558 10.0254 37.773 10.0618C37.2973 10.0405 36.8243 10.1441 36.3992 10.3626C35.9741 10.581 35.6113 10.9071 35.3455 11.3094Z" fill="white"/>
<path d="M47.4034 20.2853C46.3693 18.6157 45.8553 16.6667 45.9288 14.6941C45.8537 12.7178 46.3677 10.7646 47.4034 9.09143C47.9582 8.26612 48.706 7.59432 49.5792 7.13656C50.4525 6.67879 51.4238 6.44943 52.4058 6.46913C55.0374 6.46913 56.7616 8.12106 57.6463 11.0899H58.2589L57.1019 6.93121H61.8887V22.434H57.1019L58.2362 18.3446H57.6236C56.7389 21.2557 55.0147 22.9076 52.3831 22.9076C51.4037 22.9308 50.4344 22.7028 49.5642 22.2445C48.694 21.7863 47.951 21.1126 47.4034 20.2853ZM56.478 17.4435C56.9985 16.6274 57.2563 15.6664 57.2153 14.6941C57.2476 13.7193 56.9907 12.7571 56.478 11.9332C56.2041 11.5338 55.8364 11.2104 55.4085 10.9925C54.9806 10.7746 54.506 10.6691 54.0278 10.6856C53.5426 10.6644 53.0599 10.7676 52.624 10.9855C52.188 11.2035 51.8127 11.5293 51.5323 11.9332C51.0287 12.7607 50.7762 13.7211 50.8064 14.6941C50.7672 15.6646 51.0205 16.624 51.5323 17.4435C51.8127 17.8474 52.188 18.1732 52.624 18.3912C53.0599 18.6092 53.5426 18.7123 54.0278 18.6911C54.4965 18.698 54.9597 18.5879 55.3769 18.3704C55.7941 18.1529 56.1527 17.8347 56.4213 17.4435H56.478Z" fill="white"/>
<path d="M78.5406 6.93118L72.5287 13.9317L78.3931 22.4224H73.1072L69.4547 16.9005L67.7418 18.8644V22.4224H62.989V0.56604H67.7418V11.8408L66.6075 14.0588H67.22L73.3908 6.93118H78.5406Z" fill="white"/>
<path d="M80.4689 22.4339L77.4062 6.93118H82.1023L84.0307 18.0211V19.7077H84.6432V18.0211L86.3674 6.93118H93.0145L94.6366 18.0211V19.7077H95.2832V18.0211L97.325 6.93118H102.021L98.913 22.4339H91.676L90.0426 11.4134V9.69211H89.4301L89.362 11.4134L87.774 22.4339H80.4689Z" fill="white"/>
<path d="M103.087 20.2853C102.053 18.6157 101.539 16.6667 101.613 14.6941C101.538 12.7178 102.052 10.7646 103.087 9.09143C103.642 8.26612 104.39 7.59432 105.263 7.13656C106.136 6.67879 107.108 6.44943 108.09 6.46913C110.721 6.46913 112.446 8.12106 113.33 11.0899H113.943L112.786 6.93121H117.573V22.434H112.786L113.92 18.3446H113.308C112.423 21.2557 110.699 22.9076 108.067 22.9076C107.088 22.9308 106.118 22.7028 105.248 22.2445C104.378 21.7863 103.635 21.1126 103.087 20.2853ZM112.162 17.4435C112.682 16.6274 112.94 15.6664 112.899 14.6941C112.932 13.7193 112.675 12.7571 112.162 11.9332C111.888 11.5338 111.52 11.2104 111.092 10.9925C110.665 10.7746 110.19 10.6691 109.712 10.6856C109.227 10.6644 108.744 10.7676 108.308 10.9855C107.872 11.2035 107.497 11.5293 107.216 11.9332C106.713 12.7607 106.46 13.7211 106.49 14.6941C106.451 15.6646 106.704 16.624 107.216 17.4435C107.497 17.8474 107.872 18.1732 108.308 18.3912C108.744 18.6092 109.227 18.7123 109.712 18.6911C110.18 18.698 110.644 18.5879 111.061 18.3704C111.478 18.1529 111.837 17.8347 112.105 17.4435H112.162Z" fill="white"/>
<path d="M118.73 22.4339V0.56604H123.483V22.4339H118.73Z" fill="white"/>
<path d="M124.617 22.4339V0.56604H129.381V22.4339H124.617Z" fill="white"/>
<path d="M145.193 17.6283C144.672 20.782 141.847 22.9076 138.013 22.9076C135.064 22.9076 132.852 21.8794 131.536 19.9041C130.551 18.3778 130.055 16.5774 130.118 14.7519C130.068 12.8888 130.578 11.0545 131.582 9.49571C132.294 8.51256 133.232 7.72244 134.314 7.19473C135.395 6.66702 136.588 6.41785 137.786 6.46909C142.505 6.46909 145.148 9.49571 145.148 14.6941V15.9417H134.678C134.748 16.6978 134.993 17.4262 135.393 18.0673C135.681 18.4625 136.064 18.776 136.505 18.9782C136.945 19.1804 137.43 19.2645 137.911 19.2225C138.442 19.2709 138.975 19.1414 139.427 18.8537C139.88 18.5659 140.227 18.1357 140.418 17.6283H145.193ZM135.37 11.3094C135.039 11.8062 134.829 12.3766 134.758 12.9729H140.656C140.696 12.5835 140.651 12.1899 140.524 11.8204C140.397 11.451 140.191 11.1149 139.921 10.8364C139.65 10.5579 139.323 10.344 138.962 10.21C138.6 10.076 138.215 10.0254 137.832 10.0618C137.349 10.0324 136.866 10.1321 136.433 10.3509C135.999 10.5697 135.629 10.9001 135.359 11.3094H135.37Z" fill="white"/>
<path d="M158 10.8473H150.57V16.9699C150.57 18.1944 151.092 18.7489 151.863 18.7489C152.816 18.7489 153.213 18.1944 153.213 16.7504V14.4978H158V16.8775C158 20.5972 155.573 22.9076 151.807 22.9076C147.848 22.9076 145.817 20.8398 145.817 17.0623V4.62081L150.57 2.47214V6.9312H158V10.8473Z" fill="white"/>
</g>
<defs>
<clipPath id="clip0">
<rect width="158" height="23" fill="white"/>
</clipPath>
</defs>
</svg>
