<svg width="226" height="38" viewBox="0 0 226 38" fill="none" xmlns="http://www.w3.org/2000/svg">
<g clip-path="url(#clip0)">
<path d="M46.7638 6.446C45.6401 4.19338 43.82 2.3662 41.5755 1.23767C39.1108 -1.39868e-05 35.8975 0 29.4709 0C28.1661 0 25.0574 0 24.0045 0C22.9516 0 19.8357 0 18.538 0C12.1209 0 8.8981 -1.39868e-05 6.43583 1.23767C4.19014 2.36536 2.36899 4.19271 1.24511 6.446C0.0115972 8.9166 0.0115967 12.1408 0.0115967 18.5915C0.0115967 25.0423 0.0115972 28.2665 1.24511 30.7371C2.36983 32.9892 4.19082 34.8155 6.43583 35.943C8.8981 37.1831 12.1114 37.1831 18.538 37.1831C19.8429 37.1831 22.9516 37.1831 24.0045 37.1711C25.0574 37.1592 28.1708 37.1831 29.4709 37.1831C35.888 37.1831 39.1108 37.1831 41.5755 35.943C43.8194 34.8148 45.6395 32.9886 46.7638 30.7371C47.9973 28.2665 47.9973 25.0399 47.9973 18.5915C47.9973 12.1432 47.9973 8.9166 46.7638 6.446Z" fill="#FFCEAA"/>
<path d="M13.1456 25.3261C12.8494 24.7387 12.3967 24.2452 11.8379 23.9004C11.279 23.5556 10.6359 23.3731 9.97981 23.373H6.23886C5.85504 23.3738 5.47568 23.4556 5.12535 23.6129C4.77502 23.7703 4.46154 23.9997 4.20521 24.2863C3.94888 24.573 3.75541 24.9104 3.63736 25.2769C3.5193 25.6433 3.47929 26.0306 3.5199 26.4135C3.64824 27.6226 3.85977 28.5408 4.20677 29.2395C5.01384 30.8459 6.31348 32.1499 7.91445 32.9597C9.09092 33.5512 10.8853 33.7467 13.6542 33.8111C14.0502 33.8204 14.4418 33.7263 14.7907 33.5381C15.1396 33.3499 15.4337 33.0741 15.6443 32.7375C15.855 32.4009 15.9748 32.0152 15.9922 31.6181C16.0095 31.221 15.9238 30.8262 15.7433 30.4724L13.1456 25.3261Z" fill="#FF3B9A"/>
<path d="M8.0903 20.2728C9.32061 20.2724 10.5327 19.9746 11.624 19.4046C12.7154 18.8347 13.6539 18.0094 14.3601 16.9986L17.9845 11.8046C18.6383 10.8679 19.0485 9.78225 19.178 8.64616C19.3075 7.51006 19.1522 6.3595 18.7261 5.29894V5.26797C18.5255 4.7557 18.1917 4.30671 17.7595 3.96782C17.3273 3.62893 16.8124 3.41251 16.2685 3.34106C11.9691 3.35537 9.43552 3.46268 7.92631 4.22341C6.32199 5.02742 5.02096 6.33203 4.21864 7.94127C3.56979 9.26242 3.37254 12.9755 3.32263 15.985C3.31315 16.5457 3.41512 17.1027 3.62259 17.6235C3.83005 18.1442 4.13884 18.6182 4.53093 19.0178C4.92301 19.4174 5.39053 19.7347 5.90618 19.951C6.42182 20.1673 6.97525 20.2783 7.53415 20.2776L8.0903 20.2728Z" fill="#FF3B9A"/>
<path d="M43.7908 7.94121C42.9836 6.33552 41.6839 5.03226 40.0831 4.22336C38.4812 3.41731 35.7313 3.34578 30.9423 3.33862C24.4539 3.33862 22.436 10.8291 21.0528 12.8133L16.9767 18.6535C16.3218 19.5915 15.9329 20.6902 15.8512 21.8325C15.7696 22.9748 15.9984 24.1179 16.5133 25.14L19.5341 31.1353C19.9457 31.9533 20.5771 32.6395 21.3571 33.1161C22.1371 33.5928 23.0344 33.8409 23.9476 33.8325H24.0308C25.098 33.8444 28.3897 33.8445 29.4711 33.8445C35.1752 33.8445 38.3244 33.8445 40.0831 32.9597C41.6841 32.1499 42.9837 30.8459 43.7908 29.2395C44.6702 27.4748 44.6702 24.3197 44.6702 18.5915C44.6702 12.8633 44.6702 9.70593 43.7908 7.94121Z" fill="#FF3B9A"/>
</g>
<g clip-path="url(#clip1)">
<path d="M59 23.0265V22.568H64.2484V22.9077C64.2484 25.0274 65.5223 26.1382 67.6081 26.1382C69.045 26.1382 70.0539 25.6491 70.5431 24.8338C70.744 24.464 70.8458 24.0486 70.8387 23.6278C70.8478 23.2655 70.7685 22.9063 70.6077 22.5815C70.217 21.9293 69.3711 21.4096 67.89 21.1141L65.0501 20.5603C62.6722 20.0711 60.9091 19.0283 59.9987 17.3637C59.416 16.3195 59.1228 15.1385 59.1495 13.9429C59.1133 12.6638 59.4294 11.3993 60.0633 10.2877C61.3983 7.97432 64.1057 6.60529 67.727 6.60529C73.0399 6.60529 76.335 9.32296 76.335 14.1366V14.5951H71.0662V14.2554C71.0662 12.1662 69.8263 11.0588 67.7066 11.0588C66.273 11.0588 65.2607 11.548 64.8055 12.3633C64.5743 12.7223 64.456 13.1423 64.4658 13.5692C64.4519 13.9229 64.5303 14.2741 64.6934 14.5883C65.0841 15.2677 65.9333 15.7264 67.411 16.0219L70.2136 16.5756C72.6255 17.0648 74.3885 18.1722 75.3329 19.8368C75.9066 20.8968 76.188 22.0903 76.1482 23.2949C76.175 24.5677 75.8719 25.8258 75.2684 26.9467C73.9096 29.2601 71.1919 30.5985 67.5741 30.5985C62.2612 30.5951 59 27.8503 59 23.0265Z" fill="black"/>
<path d="M90.076 17.907H82.1847V24.2968C82.1847 25.5707 82.7418 26.155 83.5435 26.155C84.5626 26.155 84.977 25.5707 84.977 24.0692V21.7218H90.0726V24.1983C90.0726 28.0811 87.4976 30.493 83.4857 30.493C79.2802 30.493 77.1299 28.3393 77.1299 24.3953V11.4153L82.1813 9.16644V13.8306H90.0726L90.076 17.907Z" fill="black"/>
<path d="M106.613 24.9831C106.056 28.2748 103.056 30.493 98.9795 30.493C95.8509 30.493 93.5035 29.4162 92.1006 27.361C91.1222 25.9614 90.5991 24.1677 90.5991 21.9834C90.5462 20.0395 91.0929 18.1265 92.1651 16.5041C93.5987 14.4489 95.98 13.3414 98.752 13.3414C103.773 13.3414 106.565 16.5041 106.565 21.9155V23.22H95.4602C95.5328 24.0076 95.7888 24.7673 96.2076 25.4383C96.7647 26.2196 97.6106 26.6442 98.8844 26.6442C100.158 26.6442 101.164 26.0905 101.558 24.9831H106.613ZM96.177 18.3963C95.8251 18.9112 95.6014 19.5029 95.5248 20.1219H101.769C101.704 18.1346 100.661 17.0918 98.7689 17.0918C98.261 17.0666 97.7552 17.1736 97.301 17.4022C96.8467 17.6308 96.4594 17.9733 96.177 18.3963Z" fill="black"/>
<path d="M108.698 27.755C107.679 26.2875 107.132 24.2968 107.132 21.9155C107.132 19.5342 107.69 17.547 108.698 16.0795C109.288 15.2178 110.082 14.5164 111.011 14.0384C111.939 13.5604 112.971 13.3209 114.015 13.3414C116.817 13.3414 118.645 15.0671 119.589 18.0973H120.242L119.005 13.8272H124.101V30.0005H119.005L120.242 25.727H119.589C118.645 28.7605 116.817 30.4828 114.015 30.4828C112.971 30.511 111.937 30.2759 111.008 29.7992C110.079 29.3225 109.284 28.6194 108.698 27.755ZM118.285 24.786C118.836 23.933 119.11 22.9304 119.07 21.9155C119.101 20.9028 118.828 19.904 118.285 19.0485C117.978 18.6431 117.581 18.3144 117.126 18.0881C116.671 17.8617 116.169 17.744 115.661 17.744C115.152 17.744 114.651 17.8617 114.195 18.0881C113.74 18.3144 113.343 18.6431 113.036 19.0485C112.495 19.9044 112.223 20.9032 112.255 21.9155C112.213 22.93 112.486 23.9327 113.036 24.786C113.343 25.1913 113.74 25.5201 114.195 25.7465C114.651 25.9728 115.152 26.0906 115.661 26.0906C116.169 26.0906 116.671 25.9728 117.126 25.7465C117.581 25.5201 117.978 25.1913 118.285 24.786Z" fill="black"/>
<path d="M141.439 13.8305L135.059 21.1342L141.286 30.0038H135.668L131.788 24.2289L129.961 26.2841V30.0004H124.906V7.17242H129.964V18.9465L128.724 21.2599H129.376L135.963 13.8271L141.439 13.8305Z" fill="black"/>
<path d="M142.55 30.0039L139.289 13.8306H144.279L146.317 25.4043L146.351 27.1673H147.003L147.034 25.4043L148.797 13.8306H155.917L157.646 25.4043L157.68 27.1673H158.332L158.363 25.4043L160.452 13.8306H165.439L162.147 30.0039H154.45L152.724 18.4914L152.69 16.6977H152.045L151.98 18.4914L150.281 30.0039H142.55Z" fill="black"/>
<path d="M166.451 27.755C165.432 26.2875 164.889 24.2968 164.889 21.9155C164.889 19.5342 165.443 17.547 166.451 16.0794C167.041 15.2182 167.836 14.5172 168.764 14.0392C169.692 13.5613 170.724 13.3215 171.768 13.3414C174.574 13.3414 176.398 15.0671 177.346 18.0973H177.998L176.758 13.8272H181.854V30.0005H176.758L177.998 25.727H177.346C176.398 28.7605 174.574 30.4828 171.768 30.4828C170.724 30.5106 169.69 30.2754 168.761 29.7987C167.832 29.322 167.038 28.6192 166.451 27.755ZM176.041 24.786C176.592 23.9326 176.864 22.93 176.823 21.9155C176.855 20.9031 176.583 19.9044 176.041 19.0484C175.734 18.6431 175.337 18.3143 174.881 18.088C174.426 17.8616 173.924 17.7439 173.415 17.7439C172.907 17.7439 172.405 17.8616 171.949 18.088C171.494 18.3143 171.097 18.6431 170.789 19.0484C170.248 19.9044 169.976 20.9031 170.008 21.9155C169.966 22.93 170.239 23.9326 170.789 24.786C171.097 25.1914 171.494 25.5201 171.949 25.7465C172.405 25.9728 172.907 26.0906 173.415 26.0906C173.924 26.0906 174.426 25.9728 174.881 25.7465C175.337 25.5201 175.734 25.1914 176.041 24.786Z" fill="black"/>
<path d="M183.379 30.0039V7.17584H188.434V30.0039H183.379Z" fill="black"/>
<path d="M189.541 30.0039V7.17584H194.596V30.0039H189.541Z" fill="black"/>
<path d="M211.323 24.9831C210.769 28.2748 207.769 30.493 203.693 30.493C200.564 30.493 198.214 29.4162 196.814 27.361C195.836 25.9614 195.312 24.1677 195.312 21.9834C195.26 20.0395 195.806 18.1265 196.878 16.5041C198.312 14.4489 200.693 13.3414 203.465 13.3414C208.486 13.3414 211.278 16.5041 211.278 21.9155V23.22H200.157C200.231 24.0077 200.488 24.7672 200.907 25.4383C201.461 26.2196 202.31 26.6442 203.581 26.6442C204.851 26.6442 205.864 26.0905 206.254 24.9831H211.323ZM200.89 18.3963C200.537 18.9105 200.313 19.5025 200.238 20.1219H206.465C206.4 18.1346 205.357 17.0918 203.465 17.0918C202.96 17.0693 202.458 17.1775 202.007 17.406C201.556 17.6345 201.171 17.9756 200.89 18.3963Z" fill="black"/>
<path d="M225.081 17.907H217.189V24.2968C217.189 25.5707 217.743 26.155 218.548 26.155C219.567 26.155 219.982 25.5707 219.982 24.0692V21.7218H225.077V24.1983C225.077 28.0811 222.499 30.493 218.49 30.493C214.282 30.493 212.131 28.3393 212.131 24.3953V11.4153L217.186 9.16644V13.8306H225.081V17.907Z" fill="black"/>
</g>
<defs>
<clipPath id="clip0">
<rect width="48" height="37.1831" fill="white"/>
</clipPath>
<clipPath id="clip1">
<rect width="166.087" height="24" fill="white" transform="translate(59 6.59155)"/>
</clipPath>
</defs>
</svg>
